<svg id="Kijkw-2020" xmlns="http://www.w3.org/2000/svg" viewBox="0 0 102 102">
  <title>Kijkw-2020-RGB-</title>
  <path d="M1,51a50,50,0,1,1,50,50A50.018,50.018,0,0,1,1,51Z" fill="#fff"/>
  <path d="M7.4,51A43.6,43.6,0,1,1,51,94.6,43.447,43.447,0,0,1,7.4,51ZM39.8,78V24H32.6a4.216,4.216,0,0,0-1.9.3l-8.3,2.9v5.3h6.8V78Zm37.1,0V68.5H58.5v-5L76.1,49.3a2.358,2.358,0,0,0,.9-2V30.9a2.973,2.973,0,0,0-.8-2l-4-4.1a2.438,2.438,0,0,0-2-.8H54.6a2.438,2.438,0,0,0-2,.8l-4,4.1a2.973,2.973,0,0,0-.8,2v9.5H58.6V33.3h7.8V43.7L48.7,57.8a2.358,2.358,0,0,0-.9,2V78Z"/>
</svg>
