<?xml version="1.0" encoding="utf-8"?>
<!-- Generator: Adobe Illustrator 18.1.1, SVG Export Plug-In . SVG Version: 6.00 Build 0)  -->
<svg version="1.1" baseProfile="tiny" id="Layer_1" xmlns="http://www.w3.org/2000/svg" xmlns:xlink="http://www.w3.org/1999/xlink"
	 x="0px" y="0px" viewBox="0 0 20 20" xml:space="preserve">
<g>
	<path fill-rule="evenodd" d="M20,9.2c0,0.5,0,1.1,0,1.6c-0.1,1.4-0.5,2.7-1.1,3.7c-1.1,2.1-2.7,3.7-4.9,4.6c-1.1,0.5-2.4,0.8-4,0.8
		c-3,0-5.3-1.2-6.9-2.7c-1.6-1.6-2.8-3.6-3.1-6.4c0-0.6,0-1.2,0-1.7c0.1-0.7,0.2-1.4,0.4-2c0.9-3,2.9-5.1,5.7-6.3
		C7.2,0.3,8.5,0,10,0c3,0,5.2,1.2,6.9,2.7C18.6,4.3,19.7,6.3,20,9.2z M5.4,3.8C5.4,3.8,5.3,3.8,5.4,3.8C4.7,4.1,3.9,4.3,3.3,4.6
		c0,0.4,0,0.8,0,1.2c0.5,0,1.1,0,1.6,0c0,3.5,0,7,0,10.4c0.8,0,1.6,0,2.4,0c0-4.1,0-8.3,0-12.4C6.6,3.9,6,3.7,5.4,3.8z M9.3,4.9
		C9.2,5,9,5.1,9,5.2c0,0.1,0,0.4,0,0.6c0,2.9,0,5.6,0,8.5c0,0.2,0,0.5,0,0.6c0,0.1,0.2,0.2,0.3,0.3c0.2,0.2,0.4,0.4,0.7,0.7
		c0.1,0.1,0.2,0.3,0.4,0.3c0.3,0.1,0.7,0,1,0c0.7,0,1.3,0,2,0c0.3,0,0.8,0.1,1,0c0.1,0,0.2-0.2,0.3-0.3c0.2-0.2,0.4-0.4,0.7-0.6
		c0.1-0.1,0.3-0.2,0.3-0.4c0-0.1,0-0.4,0-0.6c0-1.2,0-2.4,0-3.6c0-0.2,0-0.5,0-0.6c0-0.1-0.2-0.2-0.3-0.3c-0.1-0.1-0.2-0.2-0.3-0.3
		c-0.1-0.1-0.5-0.6-0.7-0.6c-0.3-0.1-0.7,0-1,0c-0.3,0-0.8-0.1-1,0c-0.1,0-0.3,0.2-0.4,0.4c-0.1,0.1-0.3,0.3-0.4,0.4
		c0-1.2,0-2.4,0-3.6c0.6,0,1.2,0,1.8,0c0,0.5,0,1,0,1.6c0.8,0,1.6,0,2.4,0c0-0.6,0-1.2,0-1.7c0-0.2,0-0.4,0-0.6
		c0-0.1-0.2-0.2-0.3-0.3c-0.2-0.2-0.4-0.4-0.7-0.7c-0.1-0.1-0.2-0.3-0.4-0.3c-0.3-0.1-0.7,0-1,0c-1,0-2,0-3,0
		C9.9,4.2,9.6,4.5,9.3,4.9z"/>
	<path fill-rule="evenodd" fill="#FFFFFF" d="M7.2,3.8c0,4.1,0,8.2,0,12.4c-0.8,0-1.6,0-2.4,0c0-3.5,0-7,0-10.4c-0.5,0-1,0-1.6,0
		c0-0.4,0-0.8,0-1.2c0.6-0.3,1.4-0.4,2.1-0.7c0,0,0,0,0,0C6,3.7,6.6,3.9,7.2,3.8z"/>
	<path fill-rule="evenodd" fill="#FFFFFF" d="M10.3,3.8c1,0,2,0,3,0c0.3,0,0.7-0.1,1,0c0.1,0,0.3,0.2,0.4,0.3
		c0.2,0.2,0.4,0.4,0.7,0.7c0.1,0.1,0.3,0.2,0.3,0.3c0,0.1,0,0.4,0,0.6c0,0.6,0,1.2,0,1.7c-0.8,0-1.6,0-2.4,0c0-0.5,0-1,0-1.6
		c-0.6,0-1.2,0-1.8,0c0,1.2,0,2.4,0,3.6c0.1-0.1,0.3-0.2,0.4-0.4c0.1-0.1,0.3-0.3,0.4-0.4c0.3-0.1,0.8,0,1,0c0.3,0,0.7-0.1,1,0
		c0.2,0,0.6,0.5,0.7,0.6c0.1,0.1,0.2,0.2,0.3,0.3c0.1,0.1,0.3,0.2,0.3,0.3c0,0.1,0,0.4,0,0.6c0,1.2,0,2.4,0,3.6c0,0.2,0,0.4,0,0.6
		c0,0.1-0.2,0.3-0.3,0.4c-0.2,0.2-0.4,0.4-0.7,0.6c-0.1,0.1-0.3,0.3-0.3,0.3c-0.3,0.1-0.7,0-1,0c-0.7,0-1.3,0-2,0
		c-0.3,0-0.7,0.1-1,0c-0.1,0-0.2-0.2-0.4-0.3c-0.2-0.2-0.4-0.4-0.7-0.7C9.2,15.1,9,15,9,14.9c0-0.1,0-0.4,0-0.6c0-2.9,0-5.6,0-8.5
		c0-0.2,0-0.4,0-0.6C9,5.1,9.2,5,9.3,4.9C9.6,4.5,9.9,4.2,10.3,3.8z M11.4,10.9c0,1.1,0,2.2,0,3.2c0.6,0,1.2,0,1.8,0
		c0-1.1,0-2.2,0-3.3C12.7,10.9,12.1,10.9,11.4,10.9C11.4,10.9,11.4,10.9,11.4,10.9z"/>
	<path fill-rule="evenodd" d="M11.4,10.9c0.6,0,1.2,0,1.8,0c0,1.1,0,2.2,0,3.3c-0.6,0-1.2,0-1.8,0C11.4,13.1,11.4,12,11.4,10.9
		C11.4,10.9,11.4,10.9,11.4,10.9z"/>
</g>
</svg>
