<svg id="Kijkw-2020" xmlns="http://www.w3.org/2000/svg" viewBox="0 0 102 102">
  <title>Kijkw-2020-RGB-</title>
  <path d="M1,51a50,50,0,1,1,50,50A50.018,50.018,0,0,1,1,51Z" fill="#fff"/>
  <path d="M7.4,51A43.6,43.6,0,1,1,51,94.6,43.51,43.51,0,0,1,7.4,51ZM39.8,78V24H32.6a4.216,4.216,0,0,0-1.9.3l-8.3,2.9v5.3h6.8V78Zm14.6,0H69.8a2.568,2.568,0,0,0,2-.8l4-4a2.568,2.568,0,0,0,.8-2V55.8a2.438,2.438,0,0,0-.8-2L72,50.1l3.8-3.7a2.438,2.438,0,0,0,.8-2V30.9a2.973,2.973,0,0,0-.8-2l-4-4.1a2.438,2.438,0,0,0-2-.8H54.3a2.438,2.438,0,0,0-2,.8L48.4,29a2.732,2.732,0,0,0-.8,1.9V44.5a2.438,2.438,0,0,0,.8,2l3.8,3.7-3.8,3.7a2.438,2.438,0,0,0-.8,2V71.3a2.438,2.438,0,0,0,.8,2l4,3.9A2.973,2.973,0,0,0,54.4,78Zm3.8-44.8H66V45.7H58.2Zm0,21.5h7.9V68.9H58.2Z"/>
</svg>
