<svg id="6" xmlns="http://www.w3.org/2000/svg" viewBox="0 0 102 102">
  <title>6 jaar en ouder</title>
  <path d="M1,51a50,50,0,1,1,50,50A50.018,50.018,0,0,1,1,51Z" fill="#fff"/>
  <path d="M7.4,51A43.6,43.6,0,1,1,51,94.6,43.51,43.51,0,0,1,7.4,51ZM43.3,78H58.7a2.568,2.568,0,0,0,2-.8l4-4a2.568,2.568,0,0,0,.8-2V52.4a2.438,2.438,0,0,0-.8-2l-4.1-3.9a2.732,2.732,0,0,0-1.9-.8H51.5a2.364,2.364,0,0,0-1.9.8l-2.5,2.2V33.2h7.8v6.9H65.5V30.9a2.973,2.973,0,0,0-.8-2l-4-4.1a2.438,2.438,0,0,0-2-.8H43.2a2.438,2.438,0,0,0-2,.8l-3.9,4.1a2.732,2.732,0,0,0-.8,1.9V71.1a2.973,2.973,0,0,0,.8,2l4,4.1A2.438,2.438,0,0,0,43.3,78Zm3.8-23.3H55V68.9H47.1Z"/>
</svg>
