<svg id="Kijkw-2020" xmlns="http://www.w3.org/2000/svg" viewBox="0 0 102 102">
  <title>Kijkw-2020-RGB-</title>
  <g>
    <path d="M1,51a50,50,0,1,1,50,50A50.018,50.018,0,0,1,1,51Z" fill="#fff"/>
    <path d="M7.4,51A43.6,43.6,0,1,1,51,94.6,43.638,43.638,0,0,1,7.4,51ZM43.3,78H58.8a2.438,2.438,0,0,0,2-.8l3.9-4.1a2.732,2.732,0,0,0,.8-1.9V30.9a2.973,2.973,0,0,0-.8-2l-4-4.1a2.438,2.438,0,0,0-2-.8H43.3a2.568,2.568,0,0,0-2,.8l-4,4a2.568,2.568,0,0,0-.8,2V49.6a2.438,2.438,0,0,0,.8,2l4.1,3.9a2.732,2.732,0,0,0,1.9.8h7.2a2.364,2.364,0,0,0,1.9-.8l2.5-2.2V68.8H47.1V61.9H36.5v9.2a2.973,2.973,0,0,0,.8,2l4,4.1A2.438,2.438,0,0,0,43.3,78ZM47,33.1h7.9V47.3H47Z"/>
  </g>
</svg>
