<svg id="all-tous" xmlns="http://www.w3.org/2000/svg" viewBox="0 0 102 102">
  <title>Kijkw-2020-RGB-</title>
  <g>
    <path d="M1,51a50,50,0,1,1,50,50A50.018,50.018,0,0,1,1,51Z" fill="#fff"/>
    <path d="M7.4,51A43.6,43.6,0,1,1,51,94.6,43.51,43.51,0,0,1,7.4,51ZM30,78V59.4h3.2V55.1H22.3v4.3h3.4V78Zm1.8-29.1V43.6H43.4v5.3h7.9V28.3a2.035,2.035,0,0,0-.6-1.5l-3.2-3.4a1.717,1.717,0,0,0-1.5-.6H29.1a2.035,2.035,0,0,0-1.5.6l-3.1,3.3a2.2,2.2,0,0,0-.6,1.5V48.9Zm0-18.9H43.4v6.5H31.8Zm6.9,48h4.7a2.035,2.035,0,0,0,1.5-.6l1.8-1.6a2.035,2.035,0,0,0,.6-1.5V58.8a1.826,1.826,0,0,0-.6-1.5l-1.8-1.6a2.035,2.035,0,0,0-1.5-.6H38.7a2.035,2.035,0,0,0-1.5.6l-1.6,1.6a2.035,2.035,0,0,0-.6,1.5V74.3a2.035,2.035,0,0,0,.6,1.5l1.6,1.6A1.826,1.826,0,0,0,38.7,78Zm.6-18.6H43V73.7H39.3ZM54.2,78H59a1.826,1.826,0,0,0,1.5-.6l1.6-1.6a2.035,2.035,0,0,0,.6-1.5V55.1H58.5V73.7H54.9V55.1H50.5V74.3a2.035,2.035,0,0,0,.6,1.5l1.6,1.6A1.826,1.826,0,0,0,54.2,78ZM78,48.9V42.3H65.8V22.8H57.9V48.9ZM69.4,78h4.8a1.826,1.826,0,0,0,1.5-.6l1.7-1.6a1.826,1.826,0,0,0,.6-1.5V68.2a1.826,1.826,0,0,0-.6-1.5L75.6,65a1.826,1.826,0,0,0-1.5-.6h-4v-5h3.6v2.1H78V58.8a1.826,1.826,0,0,0-.6-1.5l-1.7-1.6a1.826,1.826,0,0,0-1.5-.6H69.4a2.035,2.035,0,0,0-1.5.6l-1.6,1.6a2.035,2.035,0,0,0-.6,1.5v6a2.035,2.035,0,0,0,.6,1.5L67.9,68a2.035,2.035,0,0,0,1.5.6h4.3v5.1H70.1V71.4H65.7v2.9a2.035,2.035,0,0,0,.6,1.5l1.6,1.6A1.826,1.826,0,0,0,69.4,78Z"/>
  </g>
</svg>
