<svg id="tous" xmlns="http://www.w3.org/2000/svg" viewBox="0 0 102 102">
  <title>Kijkw-2020-RGB-</title>
  <g>
    <path d="M1,51a50,50,0,1,1,50,50A50.018,50.018,0,0,1,1,51Z" fill="#fff"/>
    <path d="M7.4,51A43.6,43.6,0,1,1,51,94.6,43.489,43.489,0,0,1,7.4,51ZM26.1,67.8V39.3h4V33.9H16.5v5.4h4.1V67.8Zm10.7,0h6.3a2.035,2.035,0,0,0,1.5-.6l2.5-2.5a2.035,2.035,0,0,0,.6-1.5V38.4a1.826,1.826,0,0,0-.6-1.5l-2.5-2.4a1.826,1.826,0,0,0-1.5-.6H36.8a2.035,2.035,0,0,0-1.5.6l-2.4,2.4a2.035,2.035,0,0,0-.6,1.5V63.2a2.035,2.035,0,0,0,.6,1.5l2.4,2.5A2.035,2.035,0,0,0,36.8,67.8Zm.9-28.5h4.5v23H37.7ZM56.2,67.8h6.4a2.035,2.035,0,0,0,1.5-.6l2.4-2.5a2.035,2.035,0,0,0,.6-1.5V33.9H61.7V62.3H57.1V33.9H51.7V63.2a2.035,2.035,0,0,0,.6,1.5l2.4,2.5A2.035,2.035,0,0,0,56.2,67.8Zm19.1,0h6.3a2.035,2.035,0,0,0,1.5-.6l2.5-2.5a2.035,2.035,0,0,0,.6-1.5V52.6a1.826,1.826,0,0,0-.6-1.5L83,48.7a2.035,2.035,0,0,0-1.5-.6H76.2V39.3h4.4v4.3h5.6V38.4a1.826,1.826,0,0,0-.6-1.5l-2.5-2.4a1.826,1.826,0,0,0-1.5-.6H75.3a2.035,2.035,0,0,0-1.5.6l-2.4,2.4a2.035,2.035,0,0,0-.6,1.5V49.8l3.6,3.7h6.2v8.8H76.1V57.9H70.8v5.3a2.035,2.035,0,0,0,.6,1.5l2.4,2.5A2.035,2.035,0,0,0,75.3,67.8Z"/>
  </g>
</svg>
