<?xml version="1.0" encoding="UTF-8" standalone="no"?>
<!DOCTYPE svg PUBLIC "-//W3C//DTD SVG 1.1//EN"
 "http://www.w3.org/Graphics/SVG/1.1/DTD/svg11.dtd">
<!-- Generated by graphviz version 13.0.1 (20250615.1724)
 -->
<!-- Pages: 1 -->
<svg width="1009pt" height="556pt"
 viewBox="0.00 0.00 1009.00 556.00" xmlns="http://www.w3.org/2000/svg" xmlns:xlink="http://www.w3.org/1999/xlink">
<g id="graph0" class="graph" transform="scale(1 1) rotate(0) translate(4 551.89)">
<polygon fill="white" stroke="none" points="-4,4 -4,-551.89 1005.33,-551.89 1005.33,4 -4,4"/>
<!-- CMS_FRONTEND -->
<g id="node1" class="node">
<title>CMS_FRONTEND</title>
<ellipse fill="none" stroke="green" cx="753.75" cy="-518.89" rx="135.94" ry="28.99"/>
<text xml:space="preserve" text-anchor="middle" x="753.75" y="-522.09" font-family="Times,serif" font-size="14.00">CMS frontend</text>
<text xml:space="preserve" text-anchor="middle" x="753.75" y="-505.59" font-family="Times,serif" font-size="14.00">For example GUI of poms itself</text>
</g>
<!-- CMS_BACKEND -->
<g id="node2" class="node">
<title>CMS_BACKEND</title>
<ellipse fill="none" stroke="green" cx="642.75" cy="-408.41" rx="105.71" ry="28.99"/>
<text xml:space="preserve" text-anchor="middle" x="642.75" y="-411.61" font-family="Times,serif" font-size="14.00">CMS backend</text>
<text xml:space="preserve" text-anchor="middle" x="642.75" y="-395.11" font-family="Times,serif" font-size="14.00">For example poms itself</text>
</g>
<!-- CMS_FRONTEND&#45;&gt;CMS_BACKEND -->
<g id="edge1" class="edge">
<title>CMS_FRONTEND&#45;&gt;CMS_BACKEND</title>
<path fill="none" stroke="black" d="M725.45,-490.24C711.25,-476.36 693.9,-459.4 678.76,-444.6"/>
<polygon fill="black" stroke="black" points="681.29,-442.19 671.69,-437.7 676.4,-447.19 681.29,-442.19"/>
<text xml:space="preserve" text-anchor="middle" x="748.02" y="-458.6" font-family="Times,serif" font-size="14.00">secured, CRUD</text>
</g>
<!-- POMS_FRONTEND -->
<g id="node7" class="node">
<title>POMS_FRONTEND</title>
<g id="a_node7"><a xlink:href="https://rs-test.poms.omroep.nl/v1/docs/api/#/thesaurus" xlink:title="POMS Frontend for Thesaurus\nlives in frontend api rs.poms.omroep.nl">
<ellipse fill="none" stroke="blue" cx="836.75" cy="-276.39" rx="164.58" ry="28.99"/>
<text xml:space="preserve" text-anchor="middle" x="836.75" y="-279.59" font-family="Times,serif" font-size="14.00">POMS Frontend for Thesaurus</text>
<text xml:space="preserve" text-anchor="middle" x="836.75" y="-263.09" font-family="Times,serif" font-size="14.00">lives in frontend api rs.poms.omroep.nl</text>
</a>
</g>
</g>
<!-- CMS_FRONTEND&#45;&gt;POMS_FRONTEND -->
<g id="edge2" class="edge">
<title>CMS_FRONTEND&#45;&gt;POMS_FRONTEND</title>
<path fill="none" stroke="black" d="M782.48,-490.15C787.15,-484.49 791.5,-478.29 794.75,-471.9 820.05,-422.15 830.14,-357.73 834.15,-316.97"/>
<polygon fill="black" stroke="black" points="837.62,-317.4 835.03,-307.13 830.65,-316.78 837.62,-317.4"/>
<text xml:space="preserve" text-anchor="middle" x="910.91" y="-411.61" font-family="Times,serif" font-size="14.00">search</text>
<text xml:space="preserve" text-anchor="middle" x="910.91" y="-395.11" font-family="Times,serif" font-size="14.00">no or just simple authentication</text>
</g>
<!-- CMS_REPOS -->
<g id="node3" class="node">
<title>CMS_REPOS</title>
<path fill="none" stroke="green" d="M377.5,-317.73C377.5,-322.8 292.9,-326.92 188.75,-326.92 84.6,-326.92 0,-322.8 0,-317.73 0,-317.73 0,-235.05 0,-235.05 0,-229.98 84.6,-225.86 188.75,-225.86 292.9,-225.86 377.5,-229.98 377.5,-235.05 377.5,-235.05 377.5,-317.73 377.5,-317.73"/>
<path fill="none" stroke="green" d="M377.5,-317.73C377.5,-312.66 292.9,-308.55 188.75,-308.55 84.6,-308.55 0,-312.66 0,-317.73"/>
<text xml:space="preserve" text-anchor="middle" x="188.75" y="-295.84" font-family="Times,serif" font-size="14.00">CMS storage</text>
<text xml:space="preserve" text-anchor="middle" x="188.75" y="-279.34" font-family="Times,serif" font-size="14.00">For poms this is a database</text>
<text xml:space="preserve" text-anchor="middle" x="188.75" y="-246.84" font-family="Times,serif" font-size="14.00">	 &#160;e.g: https://data.beeldengeluid.nl/gtaa/151550, Dick Schoof</text>
</g>
<!-- CMS_BACKEND&#45;&gt;CMS_REPOS -->
<g id="edge5" class="edge">
<title>CMS_BACKEND&#45;&gt;CMS_REPOS</title>
<path fill="none" stroke="black" d="M570.81,-386.81C515.28,-370.91 436.03,-348.21 364.1,-327.61"/>
<polygon fill="black" stroke="black" points="365.11,-324.26 354.53,-324.87 363.18,-330.99 365.11,-324.26"/>
<text xml:space="preserve" text-anchor="middle" x="497.14" y="-348.12" font-family="Times,serif" font-size="14.00">read/write</text>
</g>
<!-- POMS_BACKEND -->
<g id="node6" class="node">
<title>POMS_BACKEND</title>
<g id="a_node6"><a xlink:href="https://publish.pages.omroep.nl/docs/api/#/thesaurus" xlink:title="POMS Backend for Thesaurus\nlives in &#39;publish.pages&#39;">
<ellipse fill="none" stroke="blue" cx="524.75" cy="-276.39" rx="129.05" ry="28.99"/>
<text xml:space="preserve" text-anchor="middle" x="524.75" y="-279.59" font-family="Times,serif" font-size="14.00">POMS Backend for Thesaurus</text>
<text xml:space="preserve" text-anchor="middle" x="524.75" y="-263.09" font-family="Times,serif" font-size="14.00">lives in &#39;publish.pages&#39;</text>
</a>
</g>
</g>
<!-- CMS_BACKEND&#45;&gt;POMS_BACKEND -->
<g id="edge3" class="edge">
<title>CMS_BACKEND&#45;&gt;POMS_BACKEND</title>
<path fill="none" stroke="black" d="M603.01,-381.13C595.21,-375.11 587.4,-368.41 580.75,-361.42 567.67,-347.66 555.64,-330.51 546.1,-315.29"/>
<polygon fill="black" stroke="black" points="549.19,-313.64 541,-306.92 543.22,-317.28 549.19,-313.64"/>
<text xml:space="preserve" text-anchor="middle" x="639.25" y="-348.12" font-family="Times,serif" font-size="14.00">submit, authenticated</text>
</g>
<!-- CMS_BACKEND&#45;&gt;POMS_FRONTEND -->
<g id="edge4" class="edge">
<title>CMS_BACKEND&#45;&gt;POMS_FRONTEND</title>
<path fill="none" stroke="black" d="M682.01,-381.1C712.14,-360.91 753.96,-332.88 786.52,-311.05"/>
<polygon fill="black" stroke="black" points="788.26,-314.1 794.62,-305.62 784.37,-308.28 788.26,-314.1"/>
<text xml:space="preserve" text-anchor="middle" x="768.06" y="-348.12" font-family="Times,serif" font-size="14.00">read updates</text>
</g>
<!-- GTAA -->
<g id="node4" class="node">
<title>GTAA</title>
<g id="a_node4"><a xlink:href="https://gtaa.apis.beeldengeluid.nl/" xlink:title="GTAA\nthesaurus of B&amp;G">
<ellipse fill="none" stroke="red" cx="679.75" cy="-144.37" rx="81.85" ry="28.99"/>
<text xml:space="preserve" text-anchor="middle" x="679.75" y="-147.57" font-family="Times,serif" font-size="14.00">GTAA</text>
<text xml:space="preserve" text-anchor="middle" x="679.75" y="-131.07" font-family="Times,serif" font-size="14.00">thesaurus of B&amp;G</text>
</a>
</g>
</g>
<!-- GTAA_REPOS -->
<g id="node5" class="node">
<title>GTAA_REPOS</title>
<path fill="none" stroke="red" d="M888.38,-71.25C888.38,-75.18 794.87,-78.38 679.75,-78.38 564.63,-78.38 471.12,-75.18 471.12,-71.25 471.12,-71.25 471.12,-7.12 471.12,-7.12 471.12,-3.19 564.63,0 679.75,0 794.87,0 888.38,-3.19 888.38,-7.12 888.38,-7.12 888.38,-71.25 888.38,-71.25"/>
<path fill="none" stroke="red" d="M888.38,-71.25C888.38,-67.32 794.87,-64.12 679.75,-64.12 564.63,-64.12 471.12,-67.32 471.12,-71.25"/>
<text xml:space="preserve" text-anchor="middle" x="679.75" y="-50.39" font-family="Times,serif" font-size="14.00">GTAA storage</text>
<text xml:space="preserve" text-anchor="middle" x="679.75" y="-17.89" font-family="Times,serif" font-size="14.00">	 &#160;e.g.: 151550, gtaa:Persoonsnamenm, Schoof, Dick @nl, IND, etc.</text>
</g>
<!-- GTAA&#45;&gt;GTAA_REPOS -->
<g id="edge8" class="edge">
<title>GTAA&#45;&gt;GTAA_REPOS</title>
<path fill="none" stroke="black" d="M679.75,-114.9C679.75,-107.19 679.75,-98.61 679.75,-90.09"/>
<polygon fill="black" stroke="black" points="683.25,-90.12 679.75,-80.12 676.25,-90.12 683.25,-90.12"/>
</g>
<!-- POMS_BACKEND&#45;&gt;GTAA -->
<g id="edge6" class="edge">
<title>POMS_BACKEND&#45;&gt;GTAA</title>
<path fill="none" stroke="black" d="M557.24,-248.13C581.3,-227.95 614.22,-200.33 639.88,-178.81"/>
<polygon fill="black" stroke="black" points="642.05,-181.56 647.46,-172.45 637.55,-176.2 642.05,-181.56"/>
<text xml:space="preserve" text-anchor="middle" x="660.44" y="-194.56" font-family="Times,serif" font-size="14.00">submit actions</text>
</g>
<!-- POMS_FRONTEND&#45;&gt;GTAA -->
<g id="edge7" class="edge">
<title>POMS_FRONTEND&#45;&gt;GTAA</title>
<path fill="none" stroke="black" d="M803.45,-247.81C779.14,-227.68 746.04,-200.27 720.2,-178.87"/>
<polygon fill="black" stroke="black" points="722.49,-176.22 712.56,-172.54 718.03,-181.61 722.49,-176.22"/>
<text xml:space="preserve" text-anchor="middle" x="812.04" y="-194.56" font-family="Times,serif" font-size="14.00">search/get/list actions</text>
</g>
</g>
</svg>
