<?xml version="1.0" encoding="UTF-8" standalone="no"?>
<!DOCTYPE svg PUBLIC "-//W3C//DTD SVG 1.1//EN"
 "http://www.w3.org/Graphics/SVG/1.1/DTD/svg11.dtd">
<!-- Generated by graphviz version 13.0.1 (20250615.1724)
 -->
<!-- Pages: 1 -->
<svg width="1009pt" height="556pt"
 viewBox="0.00 0.00 1009.00 556.00" xmlns="http://www.w3.org/2000/svg" xmlns:xlink="http://www.w3.org/1999/xlink">
<g id="graph0" class="graph" transform="scale(1 1) rotate(0) translate(4 551.89)">
<polygon fill="white" stroke="none" points="-4,4 -4,-551.89 1005.06,-551.89 1005.06,4 -4,4"/>
<!-- CMS_FRONTEND -->
<g id="node1" class="node">
<title>CMS_FRONTEND</title>
<ellipse fill="none" stroke="green" cx="765.12" cy="-518.89" rx="101.47" ry="28.99"/>
<text xml:space="preserve" text-anchor="middle" x="765.12" y="-522.09" font-family="Times,serif" font-size="14.00">CMS frontend</text>
<text xml:space="preserve" text-anchor="middle" x="765.12" y="-505.59" font-family="Times,serif" font-size="14.00">e.g. GUI of poms itself</text>
</g>
<!-- CMS_BACKEND -->
<g id="node2" class="node">
<title>CMS_BACKEND</title>
<ellipse fill="none" stroke="green" cx="654.12" cy="-408.41" rx="71.24" ry="28.99"/>
<text xml:space="preserve" text-anchor="middle" x="654.12" y="-411.61" font-family="Times,serif" font-size="14.00">CMS backend</text>
<text xml:space="preserve" text-anchor="middle" x="654.12" y="-395.11" font-family="Times,serif" font-size="14.00">e.g. poms itself</text>
</g>
<!-- CMS_FRONTEND&#45;&gt;CMS_BACKEND -->
<g id="edge1" class="edge">
<title>CMS_FRONTEND&#45;&gt;CMS_BACKEND</title>
<path fill="none" stroke="black" d="M737.4,-490.8C722.64,-476.37 704.34,-458.49 688.66,-443.16"/>
<polygon fill="black" stroke="black" points="691.41,-440.96 681.81,-436.47 686.52,-445.96 691.41,-440.96"/>
<text xml:space="preserve" text-anchor="middle" x="759.4" y="-458.6" font-family="Times,serif" font-size="14.00">secured, CRUD</text>
</g>
<!-- POMS_FRONTEND -->
<g id="node7" class="node">
<title>POMS_FRONTEND</title>
<g id="a_node7"><a xlink:href="https://rs-test.poms.omroep.nl/v1/docs/api/#/thesaurus" xlink:title="POMS Frontend for Thesaurus\nlives in frontend api rs.poms.omroep.nl">
<ellipse fill="none" stroke="blue" cx="831.12" cy="-276.39" rx="164.58" ry="28.99"/>
<text xml:space="preserve" text-anchor="middle" x="831.12" y="-279.59" font-family="Times,serif" font-size="14.00">POMS Frontend for Thesaurus</text>
<text xml:space="preserve" text-anchor="middle" x="831.12" y="-263.09" font-family="Times,serif" font-size="14.00">lives in frontend api rs.poms.omroep.nl</text>
</a>
</g>
</g>
<!-- CMS_FRONTEND&#45;&gt;POMS_FRONTEND -->
<g id="edge2" class="edge">
<title>CMS_FRONTEND&#45;&gt;POMS_FRONTEND</title>
<path fill="none" stroke="black" d="M793.16,-490.78C797.83,-484.97 802.12,-478.56 805.12,-471.9 827.72,-421.89 832.18,-357.79 832.37,-317.14"/>
<polygon fill="black" stroke="black" points="835.87,-317.32 832.33,-307.34 828.87,-317.36 835.87,-317.32"/>
<text xml:space="preserve" text-anchor="middle" x="914.81" y="-411.61" font-family="Times,serif" font-size="14.00">search</text>
<text xml:space="preserve" text-anchor="middle" x="914.81" y="-395.11" font-family="Times,serif" font-size="14.00">no or just simple authentication</text>
</g>
<!-- CMS_REPOS -->
<g id="node3" class="node">
<title>CMS_REPOS</title>
<path fill="none" stroke="green" d="M372.25,-317.73C372.25,-322.8 288.83,-326.92 186.12,-326.92 83.42,-326.92 0,-322.8 0,-317.73 0,-317.73 0,-235.05 0,-235.05 0,-229.98 83.42,-225.86 186.12,-225.86 288.83,-225.86 372.25,-229.98 372.25,-235.05 372.25,-235.05 372.25,-317.73 372.25,-317.73"/>
<path fill="none" stroke="green" d="M372.25,-317.73C372.25,-312.66 288.83,-308.55 186.12,-308.55 83.42,-308.55 0,-312.66 0,-317.73"/>
<text xml:space="preserve" text-anchor="middle" x="186.12" y="-295.84" font-family="Times,serif" font-size="14.00">CMS storage</text>
<text xml:space="preserve" text-anchor="middle" x="186.12" y="-279.34" font-family="Times,serif" font-size="14.00">For poms this is a RDB</text>
<text xml:space="preserve" text-anchor="middle" x="186.12" y="-246.84" font-family="Times,serif" font-size="14.00">	 &#160;e.g: http://data.beeldengeluid.nl/gtaa/151550, Dick Schoof</text>
</g>
<!-- CMS_BACKEND&#45;&gt;CMS_REPOS -->
<g id="edge5" class="edge">
<title>CMS_BACKEND&#45;&gt;CMS_REPOS</title>
<path fill="none" stroke="black" d="M596.27,-391.34C538.69,-375.34 447.35,-349.96 365.46,-327.21"/>
<polygon fill="black" stroke="black" points="366.52,-323.88 355.95,-324.57 364.65,-330.62 366.52,-323.88"/>
<text xml:space="preserve" text-anchor="middle" x="503.18" y="-348.12" font-family="Times,serif" font-size="14.00">read/write</text>
</g>
<!-- POMS_BACKEND -->
<g id="node6" class="node">
<title>POMS_BACKEND</title>
<g id="a_node6"><a xlink:href="https://publish.pages.omroep.nl/docs/api/#/thesaurus" xlink:title="POMS Backend for Thesaurus\nlives in &#39;publish.pages&#39;">
<ellipse fill="none" stroke="blue" cx="519.12" cy="-276.39" rx="129.05" ry="28.99"/>
<text xml:space="preserve" text-anchor="middle" x="519.12" y="-279.59" font-family="Times,serif" font-size="14.00">POMS Backend for Thesaurus</text>
<text xml:space="preserve" text-anchor="middle" x="519.12" y="-263.09" font-family="Times,serif" font-size="14.00">lives in &#39;publish.pages&#39;</text>
</a>
</g>
</g>
<!-- CMS_BACKEND&#45;&gt;POMS_BACKEND -->
<g id="edge3" class="edge">
<title>CMS_BACKEND&#45;&gt;POMS_BACKEND</title>
<path fill="none" stroke="black" d="M608.62,-385.64C596.96,-378.84 584.95,-370.67 575.12,-361.42 561.09,-348.21 548.78,-330.85 539.31,-315.35"/>
<polygon fill="black" stroke="black" points="542.36,-313.63 534.27,-306.79 536.33,-317.18 542.36,-313.63"/>
<text xml:space="preserve" text-anchor="middle" x="633.62" y="-348.12" font-family="Times,serif" font-size="14.00">submit, authenticated</text>
</g>
<!-- CMS_BACKEND&#45;&gt;POMS_FRONTEND -->
<g id="edge4" class="edge">
<title>CMS_BACKEND&#45;&gt;POMS_FRONTEND</title>
<path fill="none" stroke="black" d="M687,-382.29C702.13,-370.8 720.34,-357.08 736.88,-344.92 751.91,-333.86 768.43,-321.95 783.37,-311.25"/>
<polygon fill="black" stroke="black" points="785.11,-314.31 791.22,-305.65 781.04,-308.61 785.11,-314.31"/>
<text xml:space="preserve" text-anchor="middle" x="771" y="-348.12" font-family="Times,serif" font-size="14.00">read updates</text>
</g>
<!-- GTAA -->
<g id="node4" class="node">
<title>GTAA</title>
<g id="a_node4"><a xlink:href="https://gtaa.apis.beeldengeluid.nl/" xlink:title="GTAA\nthesaurus of B&amp;G">
<ellipse fill="none" stroke="red" cx="674.12" cy="-144.37" rx="81.85" ry="28.99"/>
<text xml:space="preserve" text-anchor="middle" x="674.12" y="-147.57" font-family="Times,serif" font-size="14.00">GTAA</text>
<text xml:space="preserve" text-anchor="middle" x="674.12" y="-131.07" font-family="Times,serif" font-size="14.00">thesaurus of B&amp;G</text>
</a>
</g>
</g>
<!-- GTAA_REPOS -->
<g id="node5" class="node">
<title>GTAA_REPOS</title>
<path fill="none" stroke="red" d="M911.62,-71.25C911.62,-75.18 805.17,-78.38 674.12,-78.38 543.08,-78.38 436.62,-75.18 436.62,-71.25 436.62,-71.25 436.62,-7.12 436.62,-7.12 436.62,-3.19 543.08,0 674.12,0 805.17,0 911.62,-3.19 911.62,-7.12 911.62,-7.12 911.62,-71.25 911.62,-71.25"/>
<path fill="none" stroke="red" d="M911.62,-71.25C911.62,-67.32 805.17,-64.12 674.12,-64.12 543.08,-64.12 436.62,-67.32 436.62,-71.25"/>
<text xml:space="preserve" text-anchor="middle" x="674.12" y="-50.39" font-family="Times,serif" font-size="14.00">GTAA storage</text>
<text xml:space="preserve" text-anchor="middle" x="674.12" y="-17.89" font-family="Times,serif" font-size="14.00">	 &#160;e.g.: 151550, gtaa:Persoonsnamenm, Schoof, Dick @nl, approved, IND, etc.</text>
</g>
<!-- GTAA&#45;&gt;GTAA_REPOS -->
<g id="edge8" class="edge">
<title>GTAA&#45;&gt;GTAA_REPOS</title>
<path fill="none" stroke="black" d="M674.12,-114.9C674.12,-107.19 674.12,-98.61 674.12,-90.09"/>
<polygon fill="black" stroke="black" points="677.63,-90.12 674.13,-80.12 670.63,-90.12 677.63,-90.12"/>
</g>
<!-- POMS_BACKEND&#45;&gt;GTAA -->
<g id="edge6" class="edge">
<title>POMS_BACKEND&#45;&gt;GTAA</title>
<path fill="none" stroke="black" d="M551.62,-248.13C575.68,-227.95 608.6,-200.33 634.25,-178.81"/>
<polygon fill="black" stroke="black" points="636.42,-181.56 641.84,-172.45 631.93,-176.2 636.42,-181.56"/>
<text xml:space="preserve" text-anchor="middle" x="654.82" y="-194.56" font-family="Times,serif" font-size="14.00">submit actions</text>
</g>
<!-- POMS_FRONTEND&#45;&gt;GTAA -->
<g id="edge7" class="edge">
<title>POMS_FRONTEND&#45;&gt;GTAA</title>
<path fill="none" stroke="black" d="M797.83,-247.81C773.51,-227.68 740.42,-200.27 714.58,-178.87"/>
<polygon fill="black" stroke="black" points="716.87,-176.22 706.93,-172.54 712.4,-181.61 716.87,-176.22"/>
<text xml:space="preserve" text-anchor="middle" x="806.42" y="-194.56" font-family="Times,serif" font-size="14.00">search/get/list actions</text>
</g>
</g>
</svg>
