<?xml version="1.0" encoding="UTF-8" standalone="no"?>
<!DOCTYPE svg PUBLIC "-//W3C//DTD SVG 1.1//EN"
 "http://www.w3.org/Graphics/SVG/1.1/DTD/svg11.dtd">
<!-- Generated by graphviz version 13.0.1 (20250615.1724)
 -->
<!-- Pages: 1 -->
<svg width="723pt" height="472pt"
 viewBox="0.00 0.00 723.00 472.00" xmlns="http://www.w3.org/2000/svg" xmlns:xlink="http://www.w3.org/1999/xlink">
<g id="graph0" class="graph" transform="scale(1 1) rotate(0) translate(4 467.91)">
<polygon fill="white" stroke="none" points="-4,4 -4,-467.91 718.9,-467.91 718.9,4 -4,4"/>
<!-- CMS_FRONTEND -->
<g id="node1" class="node">
<title>CMS_FRONTEND</title>
<ellipse fill="none" stroke="green" cx="372.32" cy="-434.92" rx="135.94" ry="28.99"/>
<text xml:space="preserve" text-anchor="middle" x="372.32" y="-438.12" font-family="Times,serif" font-size="14.00">CMS frontend</text>
<text xml:space="preserve" text-anchor="middle" x="372.32" y="-421.62" font-family="Times,serif" font-size="14.00">For example GUI of poms itself</text>
</g>
<!-- CMS_BACKEND -->
<g id="node2" class="node">
<title>CMS_BACKEND</title>
<ellipse fill="none" stroke="green" cx="194.32" cy="-307.94" rx="105.71" ry="28.99"/>
<text xml:space="preserve" text-anchor="middle" x="194.32" y="-311.14" font-family="Times,serif" font-size="14.00">CMS backend</text>
<text xml:space="preserve" text-anchor="middle" x="194.32" y="-294.64" font-family="Times,serif" font-size="14.00">For example poms itself</text>
</g>
<!-- CMS_FRONTEND&#45;&gt;CMS_BACKEND -->
<g id="edge1" class="edge">
<title>CMS_FRONTEND&#45;&gt;CMS_BACKEND</title>
<path fill="none" stroke="black" d="M333.7,-406.8C306.48,-387.69 269.89,-362 241.03,-341.74"/>
<polygon fill="black" stroke="black" points="243.39,-339.11 233.19,-336.23 239.36,-344.84 243.39,-339.11"/>
<text xml:space="preserve" text-anchor="middle" x="347.62" y="-366.38" font-family="Times,serif" font-size="14.00">secured, CRUD</text>
</g>
<!-- POMS_FRONTEND -->
<g id="node6" class="node">
<title>POMS_FRONTEND</title>
<g id="a_node6"><a xlink:href="https://rs-test.poms.omroep.nl/v1/docs/api/#/thesaurus" xlink:title="POMS Frontend for Thesaurus\nlives in frontend api rs.poms.omroep.nl">
<ellipse fill="none" stroke="blue" cx="550.32" cy="-231.96" rx="164.58" ry="28.99"/>
<text xml:space="preserve" text-anchor="middle" x="550.32" y="-235.16" font-family="Times,serif" font-size="14.00">POMS Frontend for Thesaurus</text>
<text xml:space="preserve" text-anchor="middle" x="550.32" y="-218.66" font-family="Times,serif" font-size="14.00">lives in frontend api rs.poms.omroep.nl</text>
</a>
</g>
</g>
<!-- CMS_FRONTEND&#45;&gt;POMS_FRONTEND -->
<g id="edge2" class="edge">
<title>CMS_FRONTEND&#45;&gt;POMS_FRONTEND</title>
<path fill="none" stroke="black" d="M397.07,-405.98C428.6,-370.38 483.16,-308.78 517.96,-269.5"/>
<polygon fill="black" stroke="black" points="520.48,-271.93 524.49,-262.12 515.24,-267.28 520.48,-271.93"/>
<text xml:space="preserve" text-anchor="middle" x="504.66" y="-374.63" font-family="Times,serif" font-size="14.00">search</text>
<text xml:space="preserve" text-anchor="middle" x="504.66" y="-358.13" font-family="Times,serif" font-size="14.00">no/hardly authentication</text>
</g>
<!-- CMS_REPOS -->
<g id="node3" class="node">
<title>CMS_REPOS</title>
<ellipse fill="none" stroke="green" cx="116.32" cy="-155.97" rx="116.32" ry="28.99"/>
<text xml:space="preserve" text-anchor="middle" x="116.32" y="-159.17" font-family="Times,serif" font-size="14.00">CMS storage</text>
<text xml:space="preserve" text-anchor="middle" x="116.32" y="-142.67" font-family="Times,serif" font-size="14.00">For poms this is a database</text>
</g>
<!-- CMS_BACKEND&#45;&gt;CMS_REPOS -->
<g id="edge4" class="edge">
<title>CMS_BACKEND&#45;&gt;CMS_REPOS</title>
<path fill="none" stroke="black" d="M138.3,-282.96C130.02,-276.98 122.6,-269.7 117.57,-260.95 106.54,-241.76 105.79,-217.09 108,-196.61"/>
<polygon fill="black" stroke="black" points="111.44,-197.29 109.33,-186.91 104.51,-196.34 111.44,-197.29"/>
<text xml:space="preserve" text-anchor="middle" x="144.94" y="-226.91" font-family="Times,serif" font-size="14.00">read/write</text>
</g>
<!-- POMS_BACKEND -->
<g id="node5" class="node">
<title>POMS_BACKEND</title>
<g id="a_node5"><a xlink:href="https://publish.pages.omroep.nl/docs/api/#/thesaurus" xlink:title="POMS Backend for Thesaurus\nlives in &#39;publish.pages&#39;">
<ellipse fill="none" stroke="blue" cx="382.32" cy="-155.97" rx="129.05" ry="28.99"/>
<text xml:space="preserve" text-anchor="middle" x="382.32" y="-159.17" font-family="Times,serif" font-size="14.00">POMS Backend for Thesaurus</text>
<text xml:space="preserve" text-anchor="middle" x="382.32" y="-142.67" font-family="Times,serif" font-size="14.00">lives in &#39;publish.pages&#39;</text>
</a>
</g>
</g>
<!-- CMS_BACKEND&#45;&gt;POMS_BACKEND -->
<g id="edge3" class="edge">
<title>CMS_BACKEND&#45;&gt;POMS_BACKEND</title>
<path fill="none" stroke="black" d="M184.07,-278.71C177.74,-255.85 173.65,-224.1 190.32,-202.97 193.47,-198.97 234.97,-188.8 278.58,-179.03"/>
<polygon fill="black" stroke="black" points="279.22,-182.47 288.22,-176.89 277.7,-175.64 279.22,-182.47"/>
<text xml:space="preserve" text-anchor="middle" x="283.32" y="-226.91" font-family="Times,serif" font-size="14.00">May submit, may request updates</text>
</g>
<!-- GTAA -->
<g id="node4" class="node">
<title>GTAA</title>
<g id="a_node4"><a xlink:href="https://gtaa.apis.beeldengeluid.nl/" xlink:title="GTAA\nthesaurus of B&amp;G">
<ellipse fill="none" stroke="red" cx="465.32" cy="-28.99" rx="81.85" ry="28.99"/>
<text xml:space="preserve" text-anchor="middle" x="465.32" y="-32.19" font-family="Times,serif" font-size="14.00">GTAA</text>
<text xml:space="preserve" text-anchor="middle" x="465.32" y="-15.69" font-family="Times,serif" font-size="14.00">thesaurus of B&amp;G</text>
</a>
</g>
</g>
<!-- POMS_BACKEND&#45;&gt;GTAA -->
<g id="edge5" class="edge">
<title>POMS_BACKEND&#45;&gt;GTAA</title>
<path fill="none" stroke="black" d="M382,-126.67C383.06,-110.65 386.56,-90.9 396.32,-75.98 400.15,-70.13 405,-64.85 410.36,-60.12"/>
<polygon fill="black" stroke="black" points="412.29,-63.06 417.94,-54.1 407.93,-57.58 412.29,-63.06"/>
<text xml:space="preserve" text-anchor="middle" x="465.32" y="-95.68" font-family="Times,serif" font-size="14.00">submit actions</text>
<text xml:space="preserve" text-anchor="middle" x="465.32" y="-79.18" font-family="Times,serif" font-size="14.00">because of authentication</text>
</g>
<!-- POMS_FRONTEND&#45;&gt;GTAA -->
<g id="edge6" class="edge">
<title>POMS_FRONTEND&#45;&gt;GTAA</title>
<path fill="none" stroke="black" d="M554.24,-202.7C557.35,-169.8 557.86,-115.01 534.32,-75.98 530.76,-70.08 526.11,-64.77 520.91,-60.05"/>
<polygon fill="black" stroke="black" points="523.51,-57.65 513.54,-54.06 519.09,-63.08 523.51,-57.65"/>
<text xml:space="preserve" text-anchor="middle" x="594.02" y="-150.92" font-family="Times,serif" font-size="14.00">search actions</text>
</g>
</g>
</svg>
