<?xml version="1.0" encoding="UTF-8" standalone="no"?>
<!DOCTYPE svg PUBLIC "-//W3C//DTD SVG 1.1//EN"
 "http://www.w3.org/Graphics/SVG/1.1/DTD/svg11.dtd">
<!-- Generated by graphviz version 13.0.1 (20250615.1724)
 -->
<!-- Pages: 1 -->
<svg width="1004pt" height="556pt"
 viewBox="0.00 0.00 1004.00 556.00" xmlns="http://www.w3.org/2000/svg" xmlns:xlink="http://www.w3.org/1999/xlink">
<g id="graph0" class="graph" transform="scale(1 1) rotate(0) translate(4 551.89)">
<polygon fill="white" stroke="none" points="-4,4 -4,-551.89 999.7,-551.89 999.7,4 -4,4"/>
<!-- CMS_FRONTEND -->
<g id="node1" class="node">
<title>CMS_FRONTEND</title>
<ellipse fill="none" stroke="green" cx="748.12" cy="-518.89" rx="135.94" ry="28.99"/>
<text xml:space="preserve" text-anchor="middle" x="748.12" y="-522.09" font-family="Times,serif" font-size="14.00">CMS frontend</text>
<text xml:space="preserve" text-anchor="middle" x="748.12" y="-505.59" font-family="Times,serif" font-size="14.00">For example GUI of poms itself</text>
</g>
<!-- CMS_BACKEND -->
<g id="node2" class="node">
<title>CMS_BACKEND</title>
<ellipse fill="none" stroke="green" cx="637.12" cy="-408.41" rx="105.71" ry="28.99"/>
<text xml:space="preserve" text-anchor="middle" x="637.12" y="-411.61" font-family="Times,serif" font-size="14.00">CMS backend</text>
<text xml:space="preserve" text-anchor="middle" x="637.12" y="-395.11" font-family="Times,serif" font-size="14.00">For example poms itself</text>
</g>
<!-- CMS_FRONTEND&#45;&gt;CMS_BACKEND -->
<g id="edge1" class="edge">
<title>CMS_FRONTEND&#45;&gt;CMS_BACKEND</title>
<path fill="none" stroke="black" d="M719.83,-490.24C705.63,-476.36 688.27,-459.4 673.13,-444.6"/>
<polygon fill="black" stroke="black" points="675.67,-442.19 666.07,-437.7 670.77,-447.19 675.67,-442.19"/>
<text xml:space="preserve" text-anchor="middle" x="742.4" y="-458.6" font-family="Times,serif" font-size="14.00">secured, CRUD</text>
</g>
<!-- POMS_FRONTEND -->
<g id="node7" class="node">
<title>POMS_FRONTEND</title>
<g id="a_node7"><a xlink:href="https://rs-test.poms.omroep.nl/v1/docs/api/#/thesaurus" xlink:title="POMS Frontend for Thesaurus\nlives in frontend api rs.poms.omroep.nl">
<ellipse fill="none" stroke="blue" cx="831.12" cy="-276.39" rx="164.58" ry="28.99"/>
<text xml:space="preserve" text-anchor="middle" x="831.12" y="-279.59" font-family="Times,serif" font-size="14.00">POMS Frontend for Thesaurus</text>
<text xml:space="preserve" text-anchor="middle" x="831.12" y="-263.09" font-family="Times,serif" font-size="14.00">lives in frontend api rs.poms.omroep.nl</text>
</a>
</g>
</g>
<!-- CMS_FRONTEND&#45;&gt;POMS_FRONTEND -->
<g id="edge2" class="edge">
<title>CMS_FRONTEND&#45;&gt;POMS_FRONTEND</title>
<path fill="none" stroke="black" d="M776.86,-490.15C781.52,-484.49 785.88,-478.29 789.12,-471.9 814.42,-422.15 824.52,-357.73 828.52,-316.97"/>
<polygon fill="black" stroke="black" points="832,-317.4 829.4,-307.13 825.02,-316.78 832,-317.4"/>
<text xml:space="preserve" text-anchor="middle" x="905.29" y="-411.61" font-family="Times,serif" font-size="14.00">search</text>
<text xml:space="preserve" text-anchor="middle" x="905.29" y="-395.11" font-family="Times,serif" font-size="14.00">no or just simple authentication</text>
</g>
<!-- CMS_REPOS -->
<g id="node3" class="node">
<title>CMS_REPOS</title>
<path fill="none" stroke="green" d="M372.25,-317.73C372.25,-322.8 288.83,-326.92 186.12,-326.92 83.42,-326.92 0,-322.8 0,-317.73 0,-317.73 0,-235.05 0,-235.05 0,-229.98 83.42,-225.86 186.12,-225.86 288.83,-225.86 372.25,-229.98 372.25,-235.05 372.25,-235.05 372.25,-317.73 372.25,-317.73"/>
<path fill="none" stroke="green" d="M372.25,-317.73C372.25,-312.66 288.83,-308.55 186.12,-308.55 83.42,-308.55 0,-312.66 0,-317.73"/>
<text xml:space="preserve" text-anchor="middle" x="186.12" y="-295.84" font-family="Times,serif" font-size="14.00">CMS storage</text>
<text xml:space="preserve" text-anchor="middle" x="186.12" y="-279.34" font-family="Times,serif" font-size="14.00">For poms this is a RDB</text>
<text xml:space="preserve" text-anchor="middle" x="186.12" y="-246.84" font-family="Times,serif" font-size="14.00">	 &#160;e.g: http://data.beeldengeluid.nl/gtaa/151550, Dick Schoof</text>
</g>
<!-- CMS_BACKEND&#45;&gt;CMS_REPOS -->
<g id="edge5" class="edge">
<title>CMS_BACKEND&#45;&gt;CMS_REPOS</title>
<path fill="none" stroke="black" d="M565.66,-386.81C510.38,-370.87 431.44,-348.11 359.85,-327.47"/>
<polygon fill="black" stroke="black" points="360.92,-324.14 350.35,-324.73 358.98,-330.87 360.92,-324.14"/>
<text xml:space="preserve" text-anchor="middle" x="492.66" y="-348.12" font-family="Times,serif" font-size="14.00">read/write</text>
</g>
<!-- POMS_BACKEND -->
<g id="node6" class="node">
<title>POMS_BACKEND</title>
<g id="a_node6"><a xlink:href="https://publish.pages.omroep.nl/docs/api/#/thesaurus" xlink:title="POMS Backend for Thesaurus\nlives in &#39;publish.pages&#39;">
<ellipse fill="none" stroke="blue" cx="519.12" cy="-276.39" rx="129.05" ry="28.99"/>
<text xml:space="preserve" text-anchor="middle" x="519.12" y="-279.59" font-family="Times,serif" font-size="14.00">POMS Backend for Thesaurus</text>
<text xml:space="preserve" text-anchor="middle" x="519.12" y="-263.09" font-family="Times,serif" font-size="14.00">lives in &#39;publish.pages&#39;</text>
</a>
</g>
</g>
<!-- CMS_BACKEND&#45;&gt;POMS_BACKEND -->
<g id="edge3" class="edge">
<title>CMS_BACKEND&#45;&gt;POMS_BACKEND</title>
<path fill="none" stroke="black" d="M597.38,-381.13C589.59,-375.11 581.77,-368.41 575.12,-361.42 562.04,-347.66 550.01,-330.51 540.48,-315.29"/>
<polygon fill="black" stroke="black" points="543.57,-313.64 535.38,-306.92 537.59,-317.28 543.57,-313.64"/>
<text xml:space="preserve" text-anchor="middle" x="633.62" y="-348.12" font-family="Times,serif" font-size="14.00">submit, authenticated</text>
</g>
<!-- CMS_BACKEND&#45;&gt;POMS_FRONTEND -->
<g id="edge4" class="edge">
<title>CMS_BACKEND&#45;&gt;POMS_FRONTEND</title>
<path fill="none" stroke="black" d="M676.38,-381.1C706.51,-360.91 748.33,-332.88 780.9,-311.05"/>
<polygon fill="black" stroke="black" points="782.64,-314.1 789,-305.62 778.74,-308.28 782.64,-314.1"/>
<text xml:space="preserve" text-anchor="middle" x="762.43" y="-348.12" font-family="Times,serif" font-size="14.00">read updates</text>
</g>
<!-- GTAA -->
<g id="node4" class="node">
<title>GTAA</title>
<g id="a_node4"><a xlink:href="https://gtaa.apis.beeldengeluid.nl/" xlink:title="GTAA\nthesaurus of B&amp;G">
<ellipse fill="none" stroke="red" cx="674.12" cy="-144.37" rx="81.85" ry="28.99"/>
<text xml:space="preserve" text-anchor="middle" x="674.12" y="-147.57" font-family="Times,serif" font-size="14.00">GTAA</text>
<text xml:space="preserve" text-anchor="middle" x="674.12" y="-131.07" font-family="Times,serif" font-size="14.00">thesaurus of B&amp;G</text>
</a>
</g>
</g>
<!-- GTAA_REPOS -->
<g id="node5" class="node">
<title>GTAA_REPOS</title>
<path fill="none" stroke="red" d="M911.62,-71.25C911.62,-75.18 805.17,-78.38 674.12,-78.38 543.08,-78.38 436.62,-75.18 436.62,-71.25 436.62,-71.25 436.62,-7.12 436.62,-7.12 436.62,-3.19 543.08,0 674.12,0 805.17,0 911.62,-3.19 911.62,-7.12 911.62,-7.12 911.62,-71.25 911.62,-71.25"/>
<path fill="none" stroke="red" d="M911.62,-71.25C911.62,-67.32 805.17,-64.12 674.12,-64.12 543.08,-64.12 436.62,-67.32 436.62,-71.25"/>
<text xml:space="preserve" text-anchor="middle" x="674.12" y="-50.39" font-family="Times,serif" font-size="14.00">GTAA storage</text>
<text xml:space="preserve" text-anchor="middle" x="674.12" y="-17.89" font-family="Times,serif" font-size="14.00">	 &#160;e.g.: 151550, gtaa:Persoonsnamenm, Schoof, Dick @nl, approved, IND, etc.</text>
</g>
<!-- GTAA&#45;&gt;GTAA_REPOS -->
<g id="edge8" class="edge">
<title>GTAA&#45;&gt;GTAA_REPOS</title>
<path fill="none" stroke="black" d="M674.12,-114.9C674.12,-107.19 674.12,-98.61 674.12,-90.09"/>
<polygon fill="black" stroke="black" points="677.63,-90.12 674.13,-80.12 670.63,-90.12 677.63,-90.12"/>
</g>
<!-- POMS_BACKEND&#45;&gt;GTAA -->
<g id="edge6" class="edge">
<title>POMS_BACKEND&#45;&gt;GTAA</title>
<path fill="none" stroke="black" d="M551.62,-248.13C575.68,-227.95 608.6,-200.33 634.25,-178.81"/>
<polygon fill="black" stroke="black" points="636.42,-181.56 641.84,-172.45 631.93,-176.2 636.42,-181.56"/>
<text xml:space="preserve" text-anchor="middle" x="654.82" y="-194.56" font-family="Times,serif" font-size="14.00">submit actions</text>
</g>
<!-- POMS_FRONTEND&#45;&gt;GTAA -->
<g id="edge7" class="edge">
<title>POMS_FRONTEND&#45;&gt;GTAA</title>
<path fill="none" stroke="black" d="M797.83,-247.81C773.51,-227.68 740.42,-200.27 714.58,-178.87"/>
<polygon fill="black" stroke="black" points="716.87,-176.22 706.93,-172.54 712.4,-181.61 716.87,-176.22"/>
<text xml:space="preserve" text-anchor="middle" x="806.42" y="-194.56" font-family="Times,serif" font-size="14.00">search/get/list actions</text>
</g>
</g>
</svg>
