<?xml version="1.0" encoding="utf-8"?>
<!-- Generator: Adobe Illustrator 18.1.1, SVG Export Plug-In . SVG Version: 6.00 Build 0)  -->
<svg version="1.1" baseProfile="tiny" id="Layer_1" xmlns="http://www.w3.org/2000/svg" xmlns:xlink="http://www.w3.org/1999/xlink"
	 x="0px" y="0px" viewBox="0 0 20 20" xml:space="preserve">
<g>
	<path fill-rule="evenodd" d="M20,9.2c0,0.5,0,1.1,0,1.6c-0.1,1.4-0.5,2.7-1.1,3.7c-1.1,2.1-2.7,3.7-4.9,4.6c-1.1,0.5-2.4,0.8-4,0.8
		c-3,0-5.3-1.2-6.9-2.7c-1.6-1.6-2.8-3.6-3.1-6.4c0-0.6,0-1.2,0-1.7c0.1-0.7,0.2-1.4,0.4-2c0.9-3,2.9-5.1,5.7-6.3
		C7.2,0.3,8.5,0,10,0c3,0,5.2,1.2,6.9,2.7C18.6,4.3,19.7,6.3,20,9.2z M13.3,5.8c0-0.2,0-0.4,0-0.6c0-0.1-0.2-0.2-0.3-0.3
		c-0.2-0.2-0.4-0.4-0.7-0.7c-0.1-0.1-0.2-0.3-0.4-0.3c-0.3-0.1-0.7,0-1,0c-1,0-2,0-3,0c-0.3,0.3-0.7,0.7-1,1
		C6.9,4.9,6.7,5.1,6.7,5.2c0,0.1,0,0.4,0,0.6c0,2.7,0,5.2,0,7.9c0,0.3-0.1,1,0,1.2c0,0.1,0.2,0.2,0.3,0.3c0.1,0.1,0.2,0.2,0.3,0.3
		c0.1,0.1,0.5,0.6,0.7,0.6c0.3,0.1,0.7,0,1,0c0.7,0,1.3,0,2,0c0.3,0,0.8,0.1,1,0c0.1,0,0.2-0.2,0.3-0.3c0.3-0.3,0.4-0.4,0.7-0.6
		c0.1-0.1,0.3-0.2,0.3-0.4c0-0.2,0-0.4,0-0.6c0-1.2,0-2.4,0-3.6c0-0.2,0-0.5,0-0.6c0-0.1-0.2-0.2-0.3-0.3c-0.1-0.1-0.2-0.2-0.3-0.3
		c-0.1-0.1-0.5-0.6-0.7-0.6c-0.3-0.1-0.8,0-1,0c-0.3,0-0.8-0.1-1,0c-0.1,0-0.3,0.3-0.4,0.4C9.3,9.3,9.2,9.4,9.1,9.5
		c0-1.2,0-2.4,0-3.6c0.6,0,1.2,0,1.8,0c0,0.5,0,1,0,1.6c0.8,0,1.6,0,2.4,0C13.3,6.9,13.3,6.3,13.3,5.8z"/>
	<path fill-rule="evenodd" fill="#FFFFFF" d="M13.3,7.5c-0.8,0-1.6,0-2.4,0c0-0.5,0-1,0-1.6c-0.6,0-1.2,0-1.8,0c0,1.2,0,2.4,0,3.6
		c0.2-0.1,0.3-0.2,0.4-0.3c0.1-0.1,0.3-0.3,0.4-0.4c0.3-0.1,0.8,0,1,0c0.3,0,0.8-0.1,1,0c0.2,0,0.6,0.5,0.7,0.6
		c0.1,0.1,0.2,0.2,0.3,0.3c0.1,0.1,0.3,0.2,0.3,0.3c0,0.2,0,0.4,0,0.6c0,1.2,0,2.4,0,3.6c0,0.2,0,0.4,0,0.6c0,0.1-0.2,0.3-0.3,0.4
		c-0.2,0.2-0.4,0.4-0.7,0.6c-0.1,0.1-0.3,0.3-0.3,0.3c-0.3,0.1-0.7,0-1,0c-0.7,0-1.3,0-2,0c-0.3,0-0.7,0.1-1,0
		c-0.2,0-0.5-0.5-0.7-0.6c-0.1-0.1-0.2-0.2-0.3-0.3c-0.1-0.1-0.3-0.2-0.3-0.3c-0.1-0.3,0-0.9,0-1.2c0-2.6,0-5.2,0-7.9
		c0-0.2,0-0.4,0-0.6c0-0.1,0.2-0.3,0.3-0.4c0.3-0.3,0.7-0.7,1-1c1,0,2,0,3,0c0.3,0,0.7-0.1,1,0c0.1,0,0.3,0.2,0.4,0.3
		c0.2,0.2,0.4,0.4,0.7,0.7c0.1,0.1,0.3,0.2,0.3,0.3c0,0.1,0,0.4,0,0.6C13.3,6.3,13.3,6.9,13.3,7.5z M9.1,10.9c0,1.1,0,2.2,0,3.2
		c0.6,0,1.2,0,1.8,0c0-1.1,0-2.2,0-3.3C10.3,10.9,9.7,10.9,9.1,10.9C9.1,10.9,9.1,10.9,9.1,10.9z"/>
	<path fill-rule="evenodd" d="M9.1,10.9c0.6,0,1.2,0,1.8,0c0,1.1,0,2.2,0,3.3c-0.6,0-1.2,0-1.8,0C9.1,13.1,9.1,12,9.1,10.9
		C9.1,10.9,9.1,10.9,9.1,10.9z"/>
</g>
</svg>
