<?xml version="1.0" encoding="utf-8"?>
<!-- Generator: Adobe Illustrator 18.1.1, SVG Export Plug-In . SVG Version: 6.00 Build 0)  -->
<svg version="1.1" baseProfile="tiny" id="Layer_1" xmlns="http://www.w3.org/2000/svg" xmlns:xlink="http://www.w3.org/1999/xlink"
	 x="0px" y="0px" viewBox="0 0 20 20" xml:space="preserve">
<g>
	<path fill-rule="evenodd" d="M0,11.2c0-0.8,0-1.6,0-2.4c0.2-1.4,0.6-2.6,1.2-3.7c0.6-1,1.3-1.9,2.2-2.7C5.1,1,7.3-0.1,10.6,0
		c1.5,0.1,2.7,0.5,3.8,1c2.2,1.1,3.8,2.7,4.8,4.9c0.5,1.1,0.8,2.5,0.8,4c0,3.1-1.2,5.2-2.8,6.9c-0.8,0.8-1.7,1.5-2.8,2
		c-1.1,0.5-2.3,0.9-3.8,1c-3.2,0.2-5.6-1-7.2-2.4C1.6,16,0.4,14,0,11.2z M6.6,14.2c0,0.2,0,0.4,0,0.6c0,0.1,0.2,0.3,0.3,0.3
		c0.2,0.2,0.4,0.5,0.7,0.7C7.7,16,7.9,16.1,8,16.2c0.3,0.1,0.7,0,1,0c0.8,0,1.3,0,2,0c0.3,0,0.8,0.1,1,0c0.1,0,0.2-0.2,0.3-0.3
		c0.2-0.3,0.4-0.4,0.6-0.7c0.1-0.1,0.3-0.3,0.3-0.4c0-0.1,0-0.4,0-0.6c0-2.7,0-5.3,0-7.9c0-0.3,0.1-1,0-1.2c0-0.1-0.2-0.2-0.3-0.3
		c-0.3-0.3-0.4-0.4-0.7-0.7C12.2,4,12.1,3.8,12,3.8c-0.3-0.1-0.7,0-1,0c-1.1,0-2,0-3,0C7.7,4,7.5,4.3,7.3,4.5C7.1,4.6,6.7,5,6.6,5.1
		c0,0.2,0,0.4,0,0.6c0,1.2,0,2.4,0,3.6c0,0.2,0,0.5,0,0.6c0,0.1,0.2,0.2,0.3,0.3c0.3,0.3,0.4,0.4,0.7,0.7C7.7,11,7.9,11.2,8,11.2
		c0.3,0.1,0.7,0,1,0c0.3,0,0.8,0.1,1,0c0.1,0,0.3-0.3,0.4-0.4c0.1-0.1,0.2-0.3,0.4-0.3c0,1.2,0,2.4,0,3.6c-0.6,0-1.2,0-1.8,0
		c0-0.5,0-1.1,0-1.6c-0.8,0-1.6,0-2.4,0C6.6,13.1,6.6,13.7,6.6,14.2z"/>
	<path fill-rule="evenodd" fill="#FFFFFF" d="M6.6,12.5c0.8,0,1.6,0,2.4,0c0,0.5,0,1.1,0,1.6c0.6,0,1.2,0,1.8,0c0-1.2,0-2.4,0-3.6
		c-0.1,0.1-0.2,0.2-0.4,0.3c-0.1,0.1-0.3,0.3-0.4,0.4c-0.3,0.1-0.8,0-1,0c-0.4,0-0.8,0.1-1,0c-0.1,0-0.3-0.2-0.4-0.3
		c-0.2-0.2-0.4-0.4-0.7-0.7C6.8,10.1,6.7,10,6.6,9.9c0-0.1,0-0.4,0-0.6c0-1.2,0-2.4,0-3.6c0-0.2,0-0.4,0-0.6c0-0.2,0.5-0.5,0.6-0.6
		C7.5,4.3,7.7,4,8,3.8c1,0,2,0,3,0c0.3,0,0.7-0.1,1,0c0.1,0,0.2,0.2,0.4,0.3c0.2,0.2,0.4,0.4,0.7,0.7c0.1,0.1,0.3,0.2,0.3,0.3
		c0.1,0.3,0,0.9,0,1.2c0,2.6,0,5.2,0,7.9c0,0.2,0,0.4,0,0.6c0,0.1-0.2,0.3-0.3,0.4c-0.2,0.2-0.4,0.4-0.6,0.7
		c-0.1,0.1-0.3,0.3-0.3,0.3c-0.2,0.1-0.7,0-1,0c-0.7,0-1.3,0-2,0c-0.3,0-0.7,0.1-1,0c-0.1,0-0.3-0.2-0.4-0.3
		c-0.2-0.2-0.4-0.4-0.7-0.7c-0.1-0.1-0.3-0.2-0.3-0.3c0-0.2,0-0.4,0-0.6C6.6,13.7,6.6,13.1,6.6,12.5z M9,6C9,7,9,8.1,9,9.2
		c0.6,0,1.2,0,1.8,0c0-1.1,0-2.2,0-3.3C10.3,5.9,9.7,5.9,9,6C9,5.9,9,5.9,9,6z"/>
	<path fill-rule="evenodd" d="M9,5.9c0.6,0,1.2,0,1.8,0c0,1.1,0,2.2,0,3.3c-0.6,0-1.2,0-1.8,0C9,8.1,9,7,9,5.9C9,5.9,9,5.9,9,5.9z"
		/>
</g>
</svg>
