<?xml version="1.0" encoding="utf-8"?>
<!-- Generator: Adobe Illustrator 18.1.1, SVG Export Plug-In . SVG Version: 6.00 Build 0)  -->
<svg version="1.1" baseProfile="tiny" id="Layer_1" xmlns="http://www.w3.org/2000/svg" xmlns:xlink="http://www.w3.org/1999/xlink"
	 x="0px" y="0px" viewBox="0 0 20 20" xml:space="preserve">
<g>
	<path fill-rule="evenodd" d="M20,9.2c0,0.6,0,1.1,0,1.6c-0.3,2.8-1.5,4.8-3.1,6.4c-1.5,1.5-3.7,2.6-6.6,2.8c-0.2,0-0.4,0-0.6,0
		c-1.5-0.1-2.7-0.4-3.8-0.9c-1.1-0.5-2-1.1-2.8-1.9C1.5,15.7,0.3,13.7,0,11c0-0.7,0-1.3,0-2c0.1-1.4,0.6-2.6,1.1-3.7
		c1.1-2.1,2.7-3.6,5-4.6C7.2,0.3,8.6,0,10.1,0c3,0.1,5.1,1.2,6.8,2.7C18.6,4.3,19.7,6.3,20,9.2z M4.3,4.2c-0.2,0.4,0,1,0.3,1.1
		c0.3,0.1,0.6-0.2,0.8-0.4c0.2-0.1,0.5-0.5,0.9-0.4c0.3,0,0.4,0.6,0.5,0.9c0.1,0.3,0.3,0.9,0.6,0.9c0.2,0,0.4-0.1,0.5-0.2
		c0.3-0.2,0.5-0.4,0.7-0.7C8.7,5.4,8.9,5.2,9,5.2c0.2,0,0.6,0.2,0.8,0.3c0.1,0,0.6,0.4,0.7,0.3c0.1-0.1-0.1-0.4-0.2-0.4
		C10.2,5.2,10.1,5.1,10,5C9.7,4.8,9.4,4.4,9.1,4.4c-0.2,0-0.5,0.2-0.7,0.4C8.3,4.9,7.9,5.2,7.7,5.2c-0.2,0-0.4-0.6-0.5-0.8
		c-0.2-0.6-0.3-1-1.1-1C5.5,3.4,4.5,3.7,4.3,4.2z M11.5,17.7c0-0.3,0-0.7,0-1c0-0.4,0-1.7,0.3-1.7c0.3,0,0.5,0.4,0.6,0.6
		c0.3,0.5,0.5,1,0.8,1.5c0.1,0.2,0.3,0.6,0.6,0.6c0.2,0,0.2-0.5,0.1-0.7c-0.1-0.8-0.3-1.7-0.3-2.4c0-0.9,0.4-1.4,0.6-2.1
		c0.1-0.2,0.2-0.5,0.1-0.8c-0.1-0.2-0.2-0.3-0.4-0.4c-0.1-0.1-0.3-0.2-0.4-0.4c-0.1-0.5,0.2-0.6,0.5-0.8c1.1-0.8,1.8-1.6,2.3-3
		c0.3-0.8,0.3-1.9,0-2.5c-0.3-0.6-1.1-1.1-2.1-1c-0.9,0.1-1.4,0.6-1.7,1.3C14,4.9,15,5.7,15,7.1c0.1,0.9-0.3,1.8-0.9,2.1
		c-0.9,0.5-1.8-0.4-2.2-0.9C11.9,8.1,11.9,8,11.8,8c-0.2,0.4-0.1,1,0.1,1.3c0.2,0.2,0.5,0.4,0.5,0.7c0,0.2-0.2,0.4-0.3,0.5
		c-0.3,0.1-0.7,0.1-1,0.2c-1.1,0.5-1.3,2.4-1.1,4c0.1,1.2,0.3,2.3,0.7,3.2c0.1,0.3,0.3,0.6,0.6,0.7C11.5,18.3,11.5,18,11.5,17.7z
		 M9.6,7.1C9.3,7.2,8.6,7.3,8.3,7.6C8.1,7.8,8,8.5,7.9,8.8C7.9,9.1,7.7,9.9,7.5,10C7.3,10,7,9.7,6.8,9.5C6.3,9.2,6,8.9,5.5,8.6
		C5.3,8.4,5,8.2,4.7,8.2C4.4,8.2,4.2,8.7,4.1,9C3.9,9.7,3.8,10.3,3.6,11c-0.1,0.3-0.2,0.7-0.5,0.9C3,12,2.9,12,2.7,12.1
		c-0.8,0.5-0.6,1.9,0.4,2c0.3,0,0.6-0.1,0.8-0.3c0.2-0.2,0.4-0.5,0.5-0.8c0.3-0.6,0.4-1.3,0.5-2.1c0.1-0.3,0.1-0.9,0.3-1
		c0.2,0,0.5,0.3,0.6,0.4c0.4,0.3,0.8,0.5,1.2,0.8c0.2,0.1,0.5,0.3,0.7,0.3c0.2,0,0.4-0.3,0.4-0.6c0.2-0.6,0.3-1.1,0.4-1.7
		c0.1-0.3,0-0.6,0.2-0.9C8.9,8.1,9.3,8,9.5,7.9c0.5-0.2,0.9-0.3,1.4-0.5c0.2-0.1,0.6-0.2,0.5-0.4c0-0.1-0.1-0.1-0.3-0.1
		C10.6,6.9,10.1,7,9.6,7.1z"/>
	<path fill-rule="evenodd" fill="#FFFFFF" d="M6.1,3.4c0.8,0,0.9,0.4,1.1,1c0.1,0.3,0.2,0.8,0.5,0.8c0.2,0,0.6-0.3,0.7-0.4
		c0.2-0.1,0.4-0.4,0.7-0.4C9.4,4.4,9.7,4.8,10,5c0.1,0.1,0.2,0.2,0.4,0.4c0.1,0.1,0.3,0.3,0.2,0.4C10.4,6,9.9,5.6,9.8,5.5
		C9.6,5.4,9.3,5.2,9,5.2c-0.1,0-0.3,0.2-0.4,0.3C8.4,5.7,8.2,5.9,7.9,6.1C7.8,6.2,7.6,6.4,7.4,6.3c-0.3,0-0.5-0.6-0.6-0.9
		C6.7,5.1,6.5,4.6,6.3,4.5C5.9,4.4,5.6,4.8,5.4,4.9C5.2,5.1,4.9,5.3,4.6,5.3C4.3,5.2,4.1,4.6,4.3,4.2C4.5,3.7,5.5,3.4,6.1,3.4z"/>
	<path fill-rule="evenodd" fill="#FFFFFF" d="M11.3,18.5c-0.3-0.1-0.5-0.4-0.6-0.7c-0.4-0.9-0.6-2-0.7-3.2c-0.1-1.6,0.1-3.4,1.1-4
		c0.3-0.1,0.7-0.1,1-0.2c0.1-0.1,0.3-0.2,0.3-0.5c0-0.3-0.4-0.5-0.5-0.7C11.7,9,11.6,8.5,11.8,8c0.1,0,0.1,0.1,0.2,0.2
		c0.4,0.5,1.2,1.5,2.2,0.9c0.6-0.3,1-1.2,0.9-2.1C15,5.7,14,4.9,12.6,4.8c0.3-0.7,0.8-1.2,1.7-1.3c1-0.1,1.7,0.4,2.1,1
		c0.4,0.6,0.3,1.7,0,2.5c-0.5,1.4-1.2,2.3-2.3,3c-0.2,0.2-0.6,0.3-0.5,0.8c0,0.2,0.2,0.3,0.4,0.4c0.1,0.1,0.3,0.3,0.4,0.4
		c0.1,0.3,0,0.6-0.1,0.8c-0.2,0.7-0.6,1.1-0.6,2.1c0,0.8,0.2,1.6,0.3,2.4c0,0.2,0.1,0.7-0.1,0.7c-0.2,0-0.5-0.4-0.6-0.6
		c-0.3-0.5-0.5-1-0.8-1.5c-0.1-0.2-0.3-0.6-0.6-0.6c-0.4,0-0.3,1.3-0.3,1.7c0,0.3,0,0.7,0,1C11.5,18,11.5,18.3,11.3,18.5z"/>
	<path fill-rule="evenodd" fill="#FFFFFF" d="M11.1,6.9c0.1,0,0.3,0,0.3,0.1c0.1,0.2-0.3,0.4-0.5,0.4C10.4,7.6,10,7.7,9.5,7.9
		C9.3,8,8.9,8.1,8.8,8.2C8.7,8.4,8.7,8.8,8.7,9.1c-0.1,0.6-0.2,1.1-0.4,1.7c-0.1,0.2-0.2,0.6-0.4,0.6c-0.3,0-0.5-0.2-0.7-0.3
		c-0.5-0.3-0.8-0.5-1.2-0.8c-0.1-0.1-0.4-0.4-0.6-0.4c-0.2,0-0.3,0.7-0.3,1c-0.2,0.8-0.3,1.4-0.5,2.1c-0.1,0.3-0.3,0.6-0.5,0.8
		c-0.2,0.2-0.5,0.3-0.8,0.3c-1,0-1.2-1.5-0.4-2C2.9,12,3,12,3.2,11.9c0.2-0.1,0.4-0.6,0.5-0.9C3.8,10.3,3.9,9.7,4.1,9
		c0.1-0.3,0.3-0.7,0.6-0.7c0.3,0,0.6,0.2,0.8,0.3c0.5,0.3,0.8,0.6,1.3,1C7,9.7,7.3,10,7.5,10c0.2,0,0.4-0.9,0.5-1.2
		c0.1-0.3,0.2-1,0.4-1.2c0.2-0.2,0.9-0.3,1.3-0.4C10.1,7,10.6,6.9,11.1,6.9z"/>
</g>
</svg>
