<?xml version="1.0" encoding="utf-8"?>
<!-- Generator: Adobe Illustrator 18.1.1, SVG Export Plug-In . SVG Version: 6.00 Build 0)  -->
<svg version="1.1" id="Layer_1" xmlns="http://www.w3.org/2000/svg" xmlns:xlink="http://www.w3.org/1999/xlink" x="0px" y="0px"
	 viewBox="0 0 20 19.9994" enable-background="new 0 0 20 19.9994" xml:space="preserve">
<g>
	<path fill-rule="evenodd" clip-rule="evenodd" d="M20,9.0649c0,0.623,0,1.248,0,1.873c-0.3199,2.8457-1.5206,4.8154-3.1607,6.3877
		c-0.79,0.7559-1.7832,1.4062-2.8896,1.8896c-1.1299,0.4932-2.4595,0.7842-3.9805,0.7842c-1.5371,0-2.8418-0.3203-3.9658-0.8174
		c-1.1079-0.4902-2.0821-1.1455-2.8721-1.9043C1.4902,15.7006,0.3066,13.7328,0,10.8734c0-0.5761,0-1.1523,0-1.7285
		c0.0986-1.3945,0.5629-2.6621,1.0766-3.6992C1.6118,4.3656,2.3242,3.4711,3.1313,2.724c1.6665-1.5449,3.7852-2.6494,6.8379-2.7216
		c1.4683-0.0352,2.855,0.3173,3.9648,0.8007c1.1309,0.4922,2.0918,1.1241,2.9053,1.8731C18.5078,4.2133,19.6489,6.2299,20,9.0649z
		 M9.5356,6.3578c-0.313-0.082-0.7764-0.1357-0.8984-0.3515C8.4375,5.6527,8.7138,4.975,8.7973,4.5971
		c0.1035-0.4658,0.2305-1.0244,0.2236-1.4737C9.0122,2.3022,8.5317,1.8813,7.625,1.9399C6.75,1.9945,6.2758,2.3695,6.3574,3.2035
		c0.0454,0.4571,0.3403,1.0479,0.5464,1.4903c0.0986,0.2109,0.208,0.4287,0.3364,0.6718C7.3481,5.5707,7.541,5.894,7.4653,6.1342
		C7.4038,6.3295,6.9902,6.4399,6.7592,6.5668C6.5434,6.684,6.2426,6.9086,6.1157,7.0629c-0.4473,0.5488-0.3604,1.332-0.2715,2.2246
		C5.6293,9.3461,5.4926,9.434,5.2832,9.5434C5.1508,9.6137,4.875,9.8246,4.6875,9.7367C4.4829,9.6391,4.5844,9.0453,4.6074,8.8559
		c0.0434-0.3526,0.084-0.6817,0.1128-0.9278c0.1084-0.9257,0.1279-1.9082-0.5308-2.2265C3.6958,5.4633,2.7817,5.6527,2.4726,6.0375
		C1.9365,6.7094,2.625,7.7816,2.9389,8.3441c0.1353,0.2442,0.2705,0.4942,0.4336,0.7833c0.1201,0.2167,0.374,0.5957,0.3213,0.914
		c-0.0508,0.3008-0.6016,0.4297-0.8188,0.6074c-0.3208,0.2598-0.4532,0.709-0.482,1.1856
		c-0.1245,2.0117,1.1387,3.3633,2.1992,4.2422c1.232,1.0195,2.5904,1.6728,4.543,1.9218c0.3442-0.9433,0.687-1.5947,0.7217-2.707
		c0.0181-0.5312-0.0615-1-0.2412-1.4404c-0.168-0.418-0.4243-0.7666-0.5127-1.2002c-0.0596-0.2881,0.0058-0.6192,0.0796-0.8008
		c0.1396-0.3476,0.435-0.5019,0.4648-0.8965c-0.6997-0.4023-1.81-0.3027-2.2622-1.0254C7.0078,9.3285,7.1508,8.3715,7.5766,7.8949
		c0.168-0.1855,0.5098-0.4531,0.9009-0.4472c0.3726,0.0039,0.6323,0.2714,0.834,0.5117c0.3911,0.4648,0.5815,0.9765,0.7866,1.584
		c0.0996,0.2968,0.1465,0.623,0.3359,0.8496c0.3633-0.0742,0.7266-0.252,1.1226-0.1602c0.561,0.1289,0.9639,0.6914,1.1899,1.2168
		c0.7149,1.6602,0.5264,4.6572-0.0976,6.2285c1.5073-0.4707,2.6343-1.248,3.5957-2.3867c0.4443-0.5244,0.8276-1.084,1.1562-1.8242
		c0.2422-0.5459,0.6201-1.7168,0.3213-2.4824c-0.1455-0.3692-0.4287-0.5918-0.7705-0.7832
		c-0.1352-0.0762-0.313-0.1504-0.3535-0.3047c-0.0732-0.2774,0.1396-0.6524,0.2412-0.8809
		c0.1309-0.2959,0.2481-0.5693,0.3535-0.8164c0.2481-0.5908,0.794-1.9023,0.0957-2.3691c-0.3584-0.2403-1.1611-0.2061-1.542-0.0166
		c-0.6777,0.3379-0.6479,1.29-0.4633,2.1611c0.0473,0.2324,0.1352,0.5098,0.207,0.7852c0.0591,0.2226,0.188,0.623,0.0972,0.8808
		c-0.1241,0.3457-0.75,0.3516-1.108,0.4473c0.064-0.6504,0.1231-1.4414-0.1606-1.8731c-0.4126-0.6269-1.6074-0.3955-1.4282-1.4882
		c0.082-0.5039,0.3672-0.9405,0.5942-1.5059c0.3301-0.8223,0.6309-1.916-0.1606-2.3535c-0.3394-0.1875-1.2193-0.3106-1.6538-0.127
		c-0.8379,0.3535-0.4883,1.5782-0.2559,2.3535c0.0855,0.2911,0.1797,0.5801,0.273,0.9122c0.0683,0.2519,0.229,0.7265,0.0957,1.0244
		c-0.1426,0.3174-0.7774,0.2763-1.0274,0.4638C10.5649,6.8305,10.1875,6.5297,9.5356,6.3578z M11.6704,16.0766
		c-0.023-0.1289-0.0586-0.4278-0.2246-0.4326c-0.1641-0.0049-0.3829,0.4267-0.4649,0.5771
		c-0.3071,0.5479-0.6328,1.2979-0.8999,1.7773c0.5396-0.0224,1.1084-0.0166,1.5728-0.1132
		C11.7114,17.3568,11.7685,16.6352,11.6704,16.0766z"/>
	<path fill-rule="evenodd" clip-rule="evenodd" fill="#FFFFFF" d="M10.7558,7.4945c0.25-0.1875,0.8848-0.1464,1.0274-0.4638
		c0.1333-0.2979-0.0274-0.7725-0.0957-1.0244c-0.0933-0.3321-0.1875-0.6211-0.273-0.9122c-0.2324-0.7753-0.582-2,0.2559-2.3535
		c0.4345-0.1836,1.3144-0.0605,1.6538,0.127c0.7915,0.4375,0.4907,1.5312,0.1606,2.3535c-0.227,0.5654-0.5122,1.002-0.5942,1.5059
		c-0.1792,1.0927,1.0156,0.8613,1.4282,1.4882c0.2837,0.4317,0.2246,1.2227,0.1606,1.8731c0.358-0.0957,0.9839-0.1016,1.108-0.4473
		c0.0908-0.2578-0.0381-0.6582-0.0972-0.8808c-0.0718-0.2754-0.1597-0.5528-0.207-0.7852
		c-0.1846-0.8711-0.2144-1.8232,0.4633-2.1611c0.3809-0.1895,1.1836-0.2237,1.542,0.0166c0.6983,0.4668,0.1524,1.7783-0.0957,2.3691
		c-0.1054,0.2471-0.2226,0.5205-0.3535,0.8164c-0.1016,0.2285-0.3144,0.6035-0.2412,0.8809
		c0.0405,0.1543,0.2183,0.2285,0.3535,0.3047c0.3418,0.1914,0.625,0.414,0.7705,0.7832c0.2988,0.7656-0.0791,1.9365-0.3213,2.4824
		c-0.3286,0.7402-0.7119,1.2998-1.1562,1.8242c-0.9614,1.1387-2.0884,1.916-3.5957,2.3867c0.624-1.5713,0.8125-4.5683,0.0976-6.2285
		c-0.226-0.5254-0.6289-1.0879-1.1899-1.2168c-0.396-0.0918-0.7593,0.086-1.1226,0.1602c-0.1894-0.2266-0.2363-0.5528-0.3359-0.8496
		C9.893,8.9359,9.7026,8.4242,9.3115,7.9594c-0.2017-0.2403-0.4614-0.5078-0.834-0.5117C8.0864,7.4418,7.7446,7.7094,7.5766,7.8949
		C7.1508,8.3715,7.0078,9.3285,7.3852,9.9281c0.4522,0.7227,1.5625,0.6231,2.2622,1.0254
		c-0.0298,0.3946-0.3252,0.5489-0.4648,0.8965c-0.0738,0.1816-0.1392,0.5127-0.0796,0.8008
		c0.0884,0.4336,0.3447,0.7822,0.5127,1.2002c0.1797,0.4404,0.2593,0.9092,0.2412,1.4404c-0.0347,1.1123-0.3775,1.7637-0.7217,2.707
		c-1.9526-0.249-3.311-0.9023-4.543-1.9218c-1.0605-0.8789-2.3237-2.2305-2.1992-4.2422c0.0288-0.4766,0.1612-0.9258,0.482-1.1856
		c0.2172-0.1777,0.768-0.3066,0.8188-0.6074c0.0527-0.3183-0.2012-0.6973-0.3213-0.914C3.2094,8.8383,3.0742,8.5883,2.9389,8.3441
		C2.625,7.7816,1.9365,6.7094,2.4726,6.0375c0.3091-0.3848,1.2232-0.5742,1.7168-0.3359c0.6587,0.3183,0.6392,1.3008,0.5308,2.2265
		C4.6914,8.1742,4.6508,8.5033,4.6074,8.8559c-0.023,0.1894-0.1245,0.7832,0.0801,0.8808c0.1875,0.0879,0.4633-0.123,0.5957-0.1933
		c0.2094-0.1094,0.3461-0.1973,0.561-0.2559C5.7553,8.3949,5.6684,7.6117,6.1157,7.0629C6.2426,6.9086,6.5434,6.684,6.7592,6.5668
		c0.231-0.1269,0.6446-0.2373,0.7061-0.4326C7.541,5.894,7.3481,5.5707,7.2402,5.3656C7.1118,5.1225,7.0024,4.9047,6.9038,4.6938
		c-0.2061-0.4424-0.501-1.0332-0.5464-1.4903C6.2758,2.3695,6.75,1.9945,7.625,1.9399c0.9067-0.0586,1.3872,0.3623,1.3959,1.1835
		c0.0069,0.4493-0.1201,1.0079-0.2236,1.4737C8.7138,4.975,8.4375,5.6527,8.6372,6.0063c0.122,0.2158,0.5854,0.2695,0.8984,0.3515
		C10.1875,6.5297,10.5649,6.8305,10.7558,7.4945z"/>
	<path fill-rule="evenodd" clip-rule="evenodd" fill="#FFFFFF" d="M11.6538,17.8852c-0.4644,0.0966-1.0332,0.0908-1.5728,0.1132
		c0.2671-0.4794,0.5928-1.2294,0.8999-1.7773c0.082-0.1504,0.3008-0.582,0.4649-0.5771c0.166,0.0048,0.2016,0.3037,0.2246,0.4326
		C11.7685,16.6352,11.7114,17.3568,11.6538,17.8852z"/>
</g>
</svg>
