<?xml version="1.0" encoding="utf-8"?>
<!-- Generator: Adobe Illustrator 18.1.1, SVG Export Plug-In . SVG Version: 6.00 Build 0)  -->
<svg version="1.1" baseProfile="tiny" id="Layer_1" xmlns="http://www.w3.org/2000/svg" xmlns:xlink="http://www.w3.org/1999/xlink"
	 x="0px" y="0px" viewBox="0 0 20 20" xml:space="preserve">
<g>
	<path fill-rule="evenodd" d="M20,9.2c0,0.5,0,1.1,0,1.7c-0.3,2.9-1.5,4.9-3.1,6.4c-0.8,0.8-1.8,1.4-2.9,1.9
		c-1.1,0.5-2.4,0.8-3.9,0.8c-3.1,0-5.2-1.2-6.9-2.7C1.5,15.8,0.4,13.8,0,11c0-0.7,0-1.3,0-2c0.1-1.4,0.6-2.6,1.1-3.7
		c0.6-1.1,1.3-1.9,2.1-2.7C4.9,1.1,7,0,10.1,0c3,0,5.3,1.3,6.8,2.7C18.5,4.3,19.7,6.3,20,9.2z M7.4,3.7C6.8,4.7,6.5,5.9,6.2,7.2
		C6,7.9,5.9,8.5,5.9,9.2c0,1.2,0.6,1.8,1.3,2.2c0.6,0.3,1.4,0.3,1.7-0.2c0.2-0.3,0.2-0.9,0.1-1.2C8.9,9.5,8.5,9.1,8.2,8.8
		C7.8,8.3,7.3,7.6,7.4,6.7C7.6,6.1,7.8,5.4,8.2,5C8.5,4.6,9,4.6,9.3,4.2c0.5-0.8,0-1.9-0.8-1.8C8,2.4,7.6,3.3,7.4,3.7z M10.8,4.3
		c0.1,0.2,0.3,0.2,0.4,0.3C11.5,4.7,11.8,5,12,5.3c0.3,0.5,0.7,1.5,0.5,2.2c-0.2,0.6-0.7,1.3-1.1,1.8c-0.2,0.2-0.3,0.3-0.4,0.6
		c-0.1,0.3-0.1,0.9,0,1.2c0.3,0.6,1.1,0.6,1.8,0.4c0.5-0.2,1-0.6,1.2-1.1c0.4-0.9,0-2.2-0.2-3.1c-0.3-1.3-0.7-2.5-1.2-3.6
		c-0.2-0.4-0.6-1.3-1.2-1.2C10.5,2.4,10.3,3.6,10.8,4.3z M3.3,8.3c0.1,0.2,0.2,0.7,0.4,0.7c0.2,0,0.4-0.4,0.5-0.6
		c0.3-0.6,0.3-1.7-0.5-1.6C3.1,6.8,3.1,7.7,3.3,8.3z M15.7,8.4C15.9,8.7,16,9,16.2,8.9c0.1,0,0.3-0.4,0.4-0.6
		c0.2-0.7,0.2-1.7-0.5-1.6C15.3,6.8,15.5,7.9,15.7,8.4z M2.9,8.4C2.9,7.6,2.1,7.5,2.1,8.3C1.7,8.1,1.5,8.7,1.7,9
		c-0.1,0-0.1-0.1-0.2,0c-0.5,0.2-0.2,1.3,0.4,1c0.1-0.1,0-0.4,0-0.5c0.2,0.3,0.7,0,0.5-0.4C2.8,9.4,3,8.9,2.9,8.4z M17.3,7.8
		C17,8,16.9,8.7,17.1,9c0.1,0.2,0.4,0.1,0.5,0c-0.2,0.4,0.3,0.7,0.5,0.4c-0.1,0.1-0.1,0.5,0,0.5c0.5,0.3,0.9-0.8,0.4-1
		c-0.1,0-0.1,0-0.2,0c0.2-0.3-0.1-0.9-0.4-0.7C17.9,7.7,17.5,7.6,17.3,7.8z M2,10.5c-0.2,0.4-0.1,1,0,1.5c0.3,1,0.7,1.7,1.2,2.5
		c0.3,0.5,0.6,0.9,1,1.4c0.3,0.3,0.9,1.1,1.5,0.9c0.8-0.1,0.7-1.5,0.1-1.7c-0.2-0.1-0.5-0.1-0.7-0.1c-0.3,0-0.5-0.1-0.6-0.2
		c-0.4-0.2-0.8-0.8-0.9-1.3c-0.2-0.7,0.2-1.4,0.5-1.8c0.2-0.4,0.6-0.8,0.6-1.4c0-0.7-0.4-1.1-1.1-1C2.9,9.5,2.2,10,2,10.5z
		 M15.3,10.4c0,0.3,0.2,0.6,0.3,0.8c0.1,0.2,0.2,0.4,0.4,0.7c0.2,0.4,0.6,0.9,0.5,1.5c0,0.3-0.2,0.6-0.4,0.8
		c-0.3,0.4-0.6,0.7-1.2,0.8c-0.3,0.1-0.6,0-0.8,0.1c-0.7,0.3-0.7,1.6,0,1.7c0.3,0.1,0.7-0.1,0.9-0.3c0.2-0.2,0.5-0.4,0.6-0.6
		c0.8-0.9,1.3-1.9,1.9-3c0.3-0.5,0.6-1.1,0.5-1.9c0-0.1,0-0.3-0.1-0.4c-0.2-0.7-1.1-1.4-2-1.3C15.6,9.5,15.3,9.9,15.3,10.4z
		 M6.1,11.2c-0.4-0.1-0.7,0.3-0.7,0.7c0,0.4,0.3,0.8,0.6,0.5c-0.2,0.4,0.2,1,0.6,0.8c0,0.3,0.1,0.5,0.3,0.6c0.5,0.1,0.6-0.7,0.6-1.2
		c0-0.2-0.1-0.7-0.3-0.7c-0.2,0-0.3,0.2-0.4,0.2c0.1-0.3,0-0.6-0.3-0.6c-0.1,0-0.2,0.2-0.3,0.2C6.2,11.7,6.2,11.3,6.1,11.2z
		 M14.5,12.3c0.2-0.4-0.1-1.2-0.5-1.1c-0.2,0-0.3,0.4-0.2,0.6c-0.3-0.4-0.8-0.1-0.6,0.4C13.1,12.2,13,12,12.8,12
		c-0.2,0-0.3,0.4-0.3,0.8c0,0.3,0,0.7,0.1,0.9c0.3,0.4,0.8,0.1,0.8-0.4c0.4,0.3,0.8-0.4,0.6-0.8C14.3,12.7,14.5,12.5,14.5,12.3z
		 M7.9,13c-0.1,0.7-0.2,1.5,0.4,1.8c0.5,0.2,0.9-0.2,0.9-0.6c0.1-0.6-0.1-0.9-0.3-1.3c-0.1-0.2-0.3-0.8-0.6-0.7
		C8,12.2,7.9,12.7,7.9,13z M11.6,12.2c-0.4,0.2-0.7,1.1-0.8,1.7c0,0.6,0.3,1.2,0.9,1c0.5-0.2,0.5-1.1,0.4-1.9
		C12,12.6,11.9,12.1,11.6,12.2C11.6,12.2,11.6,12.2,11.6,12.2z"/>
	<path fill-rule="evenodd" fill="#FFFFFF" d="M8.5,2.4c0.8-0.1,1.3,1,0.8,1.8C9,4.6,8.5,4.6,8.2,5C7.8,5.4,7.6,6.1,7.4,6.7
		C7.3,7.6,7.8,8.3,8.2,8.8C8.5,9.1,8.9,9.5,9,9.9c0.1,0.3,0.1,0.9-0.1,1.2c-0.3,0.5-1.1,0.5-1.7,0.2c-0.8-0.4-1.3-1-1.3-2.2
		c0-0.8,0.2-1.4,0.4-2c0.3-1.3,0.6-2.5,1.2-3.6C7.6,3.3,8,2.4,8.5,2.4z"/>
	<path fill-rule="evenodd" fill="#FFFFFF" d="M11.4,2.4c0.5,0,1,0.8,1.2,1.2c0.5,1.1,0.9,2.4,1.2,3.6c0.2,0.8,0.6,2.2,0.2,3.1
		c-0.2,0.5-0.7,0.9-1.2,1.1c-0.6,0.3-1.5,0.2-1.8-0.4c-0.1-0.3-0.1-0.9,0-1.2c0.1-0.2,0.3-0.4,0.4-0.6c0.4-0.5,1-1.1,1.1-1.8
		c0.2-0.7-0.2-1.7-0.5-2.2c-0.2-0.3-0.5-0.6-0.9-0.8c-0.1-0.1-0.2-0.1-0.4-0.3C10.3,3.6,10.5,2.4,11.4,2.4z"/>
	<path fill-rule="evenodd" fill="#FFFFFF" d="M3.7,6.7c0.8-0.1,0.8,1,0.5,1.6C4.2,8.6,4,8.9,3.8,8.9c-0.2,0-0.4-0.4-0.4-0.7
		C3.1,7.7,3.1,6.8,3.7,6.7z"/>
	<path fill-rule="evenodd" fill="#FFFFFF" d="M16.1,6.7c0.8-0.1,0.8,0.9,0.5,1.6c-0.1,0.3-0.2,0.6-0.4,0.6c-0.2,0-0.4-0.3-0.5-0.5
		C15.5,7.9,15.3,6.8,16.1,6.7z"/>
	<path fill-rule="evenodd" fill="#FFFFFF" d="M2.4,9c0.2,0.4-0.3,0.7-0.5,0.4c0,0.1,0.1,0.4,0,0.5c-0.6,0.3-1-0.8-0.4-1
		c0.1,0,0.1,0,0.2,0C1.5,8.7,1.7,8.1,2.1,8.3c0-0.8,0.7-0.7,0.8,0.1C3,8.9,2.8,9.4,2.4,9z"/>
	<path fill-rule="evenodd" fill="#FFFFFF" d="M17.8,8.3c0.4-0.2,0.7,0.4,0.4,0.7c0.1,0,0.1-0.1,0.2,0c0.5,0.2,0.1,1.3-0.4,1
		c-0.1-0.1-0.1-0.4,0-0.5c-0.2,0.3-0.7,0-0.5-0.4c-0.1,0.1-0.4,0.2-0.5,0c-0.2-0.3-0.1-1,0.2-1.2C17.5,7.6,17.9,7.7,17.8,8.3z"/>
	<path fill-rule="evenodd" fill="#FFFFFF" d="M3.5,9.4c0.7-0.1,1.1,0.3,1.1,1c0,0.5-0.4,0.9-0.6,1.4c-0.3,0.4-0.7,1.1-0.5,1.8
		c0.1,0.5,0.6,1,0.9,1.3C4.6,14.9,4.8,15,5.1,15c0.2,0,0.5,0,0.7,0.1c0.6,0.3,0.7,1.6-0.1,1.7c-0.6,0.1-1.2-0.6-1.5-0.9
		c-0.4-0.5-0.7-1-1-1.4C2.7,13.7,2.3,13,2,12c-0.1-0.4-0.2-1.1,0-1.5C2.2,10,2.9,9.5,3.5,9.4z"/>
	<path fill-rule="evenodd" fill="#FFFFFF" d="M16.1,9.4c0.9-0.1,1.7,0.6,2,1.3c0,0.1,0.1,0.3,0.1,0.4c0,0.8-0.3,1.4-0.5,1.9
		c-0.5,1.1-1.1,2-1.9,3c-0.2,0.2-0.4,0.4-0.6,0.6c-0.2,0.2-0.5,0.4-0.9,0.3c-0.8-0.1-0.7-1.5,0-1.7c0.3-0.1,0.6-0.1,0.8-0.1
		c0.6-0.1,0.9-0.4,1.2-0.8c0.2-0.3,0.3-0.5,0.4-0.8c0-0.6-0.3-1.1-0.5-1.5c-0.1-0.2-0.2-0.4-0.4-0.7c-0.1-0.2-0.3-0.5-0.3-0.8
		C15.3,9.9,15.6,9.5,16.1,9.4z"/>
	<path fill-rule="evenodd" fill="#FFFFFF" d="M6.1,11.8c0.1,0,0.1-0.2,0.3-0.2c0.3,0,0.4,0.3,0.3,0.6C6.8,12.2,6.9,12,7.1,12
		c0.2,0,0.3,0.4,0.3,0.7c0,0.5-0.1,1.3-0.6,1.2c-0.2-0.1-0.3-0.3-0.3-0.6c-0.4,0.3-0.8-0.3-0.6-0.8c-0.3,0.2-0.6-0.2-0.6-0.5
		c0-0.4,0.3-0.8,0.7-0.7C6.2,11.3,6.2,11.7,6.1,11.8z"/>
	<path fill-rule="evenodd" fill="#FFFFFF" d="M14.1,12.5c0.2,0.4-0.2,1.1-0.6,0.8c0,0.6-0.5,0.8-0.8,0.4c-0.1-0.2-0.2-0.6-0.1-0.9
		c0-0.3,0.1-0.7,0.3-0.8c0.2,0,0.3,0.2,0.4,0.3c-0.2-0.5,0.3-0.9,0.6-0.4c-0.1-0.2-0.1-0.6,0.2-0.6c0.4-0.1,0.8,0.7,0.5,1.1
		C14.5,12.5,14.3,12.7,14.1,12.5z"/>
	<path fill-rule="evenodd" fill="#FFFFFF" d="M8.2,12.1c0.3-0.1,0.5,0.4,0.6,0.7c0.2,0.5,0.4,0.8,0.3,1.3c0,0.4-0.4,0.9-0.9,0.6
		c-0.6-0.3-0.5-1.1-0.4-1.8C7.9,12.7,8,12.2,8.2,12.1z"/>
	<path fill-rule="evenodd" fill="#FFFFFF" d="M11.6,12.1c0.3-0.1,0.4,0.4,0.5,0.8c0.2,0.8,0.2,1.6-0.4,1.9c-0.6,0.3-1-0.4-0.9-1
		C10.8,13.2,11.2,12.4,11.6,12.1C11.6,12.2,11.6,12.2,11.6,12.1z"/>
</g>
</svg>
