<?xml version="1.0" encoding="UTF-8" standalone="no"?>
<!-- Created with Inkscape (http://www.inkscape.org/) -->

<svg
   xmlns:dc="http://purl.org/dc/elements/1.1/"
   xmlns:cc="http://creativecommons.org/ns#"
   xmlns:rdf="http://www.w3.org/1999/02/22-rdf-syntax-ns#"
   xmlns:svg="http://www.w3.org/2000/svg"
   xmlns="http://www.w3.org/2000/svg"
   version="1.2"
   width="100%"
   height="100%"
   viewBox="0 0 53.05 51.82"
   id="Layer_1"
   xml:space="preserve"><metadata
     id="metadata3073"><rdf:RDF><cc:Work
         rdf:about=""><dc:format>image/svg+xml</dc:format><dc:type
           rdf:resource="http://purl.org/dc/dcmitype/StillImage" /><dc:title></dc:title></cc:Work></rdf:RDF></metadata><defs
     id="defs3071" /><g
     transform="translate(-318.49211,-266.88)"
     id="NPO_x5F_LOGO"><g
       id="g3059"><path
         d="m 321.8,295.6 19.8,19.7 c 0,0 1.1,1.4 2.9,1.4 1.8,0 2.9,-1.4 2.9,-1.4 l 19.9,-19.7 c 0,0 2.8,-2.9 0,-5.6 -2.8,-2.8 -19.6,-19.7 -19.6,-19.7 0,0 -3.1,-3.2 -6.3,0 -3.2,3.2 -19.5,19.4 -19.5,19.4 0,0 -3.1,2.9 -0.1,5.9 z"
         id="path3061"
         style="fill:#eb6d1c" /><path
         d="m 325.1,294.3 3.5,3.8 c 0,0 0.8,0.9 1.8,0 0.9,-0.9 -0.2,-1.7 -0.2,-1.7 l -3.1,-3.1 c 0,0 -0.6,-0.8 -0.1,-1.3 0.6,-0.6 1.9,-1.8 1.9,-1.8 0,0 0.6,-0.6 1.3,0 0.6,0.6 3.4,3.3 3.4,3.3 0,0 0.6,0.9 1.5,-0.1 0.9,-0.9 0,-1.5 0,-1.5 l -3.5,-3.3 c 0,0 -2.1,-2 -4.1,0 -2,2 -2,2 -2,2 0,0 -1.9,2.2 -0.4,3.7 z"
         id="path3063"
         style="fill:#ffffff" /><path
         d="m 341.1,287 c 0,0 1.8,-2.1 0,-3.9 -1.8,-1.8 -2.3,-2.3 -2.3,-2.3 0,0 -2,-1.8 -4,0.3 -2,2 -2,2 -2,2 0,0 -1.8,2.2 0,3.9 1.8,1.8 5.2,5.3 5.2,5.3 0,0 0.7,0.4 1.5,-0.3 0.7,-0.7 0,-1.3 0,-1.3 l -1.4,-1.2 c 0,0 0.4,-0.1 0.5,-0.2 0.4,-0.2 2.5,-2.3 2.5,-2.3 z m -3.4,0.3 c -0.5,0.5 -1.2,0 -1.2,0 l -1.8,-1.8 c -0.6,-0.6 0,-1.3 0,-1.3 0,0 1.3,-1.3 1.8,-1.8 0.5,-0.5 1.3,0 1.3,0 0,0 1.2,1.2 1.8,1.8 0.5,0.5 0,1.1 0,1.1 0,0 -1.4,1.5 -1.9,2 z"
         id="path3065"
         style="fill:#ffffff" /><path
         d="m 348.8,275.8 c -1.4,-1.4 -2.3,-2.3 -2.3,-2.3 0,0 -2.3,-1.9 -4.5,0.3 -2.2,2.2 -1.9,2 -1.9,2 0,0 -1.3,2.2 0,3.5 l 2.2,2.4 c 0,0 2.4,1.7 4.1,0 1.7,-1.7 2.3,-2.4 2.3,-2.4 0,0 1.5,-2.1 0.1,-3.5 z m -1.9,2.4 c 0,0 -1.4,1.4 -1.9,2 -0.5,0.5 -1.2,0 -1.2,0 l -1.8,-1.8 c -0.6,-0.6 0,-1.2 0,-1.2 0,0 1.3,-1.3 1.8,-1.8 0.6,-0.5 1.3,0 1.3,0 0,0 1.2,1.3 1.8,1.8 0.6,0.4 0,1 0,1 z"
         id="path3067"
         style="fill:#ffffff" /></g></g></svg>