<?xml version="1.0" encoding="utf-8"?>
<!-- Generator: Adobe Illustrator 18.1.1, SVG Export Plug-In . SVG Version: 6.00 Build 0)  -->
<svg version="1.1" baseProfile="tiny" id="Layer_1" xmlns="http://www.w3.org/2000/svg" xmlns:xlink="http://www.w3.org/1999/xlink"
	 x="0px" y="0px" viewBox="0 0 20 20" xml:space="preserve">
<g>
	<path fill-rule="evenodd" d="M20,9.2c0,0.5,0,1.1,0,1.6c-0.1,1.4-0.5,2.7-1.1,3.7c-1.1,2.1-2.7,3.7-4.9,4.6c-1.1,0.5-2.4,0.8-4,0.8
		c-3,0-5.3-1.2-6.9-2.7c-1.6-1.6-2.8-3.6-3.1-6.4c0-0.6,0-1.2,0-1.7c0.1-0.7,0.2-1.4,0.4-2c0.9-3,2.9-5.1,5.7-6.3
		C7.2,0.3,8.5,0,10,0c3,0,5.2,1.2,6.9,2.7C18.6,4.3,19.7,6.3,20,9.2z M5.5,3.8C5.4,3.8,5.4,3.8,5.5,3.8C4.7,4.1,4,4.3,3.4,4.6
		c0,0.4,0,0.8,0,1.2c0.5,0,1,0,1.6,0c0,3.5,0,7,0,10.5c0.8,0,1.6,0,2.4,0c0-4.1,0-8.3,0-12.4C6.7,3.9,6.1,3.7,5.5,3.8z M11.5,13
		c0-0.1,0.4-0.3,0.5-0.5c1.1-0.9,2.1-1.8,3.2-2.7c0.1-0.1,0.5-0.3,0.5-0.5c0-0.1,0-0.3,0-0.5c0-0.9,0-1.8,0-2.6c0-0.3,0.1-0.8,0-1.1
		c0-0.1-0.2-0.2-0.3-0.3c-0.2-0.2-0.4-0.4-0.7-0.7c-0.1-0.1-0.2-0.3-0.4-0.3c-0.3-0.1-0.7,0-1,0c-1,0-2.1,0-3,0
		C10.1,4,9.9,4.3,9.7,4.5C9.6,4.7,9.1,5,9.1,5.2c0,0.2,0,0.4,0,0.6c0,0.6,0,1.2,0,1.8c0.8,0,1.6,0,2.5,0c0-0.5,0-1.1,0-1.6
		c0.6,0,1.2,0,1.8,0c0,0.6,0,1.2,0,1.8c0,0.2,0,0.4,0,0.6c0,0.1-0.4,0.3-0.5,0.5c-1.1,0.9-2.1,1.8-3.2,2.7c-0.1,0.1-0.5,0.3-0.5,0.5
		c0,0.1,0,0.4,0,0.5c0,1.3,0,2.5,0,3.8c2.2,0,4.4,0,6.7,0c0-0.7,0-1.4,0-2.2c-1.4,0-2.8,0-4.2,0C11.6,13.8,11.4,13.3,11.5,13z"/>
	<path fill-rule="evenodd" fill="#FFFFFF" d="M7.3,3.8c0,4.1,0,8.2,0,12.4c-0.8,0-1.6,0-2.4,0c0-3.5,0-7,0-10.5c-0.5,0-1,0-1.6,0
		c0-0.4,0-0.8,0-1.2c0.6-0.2,1.4-0.5,2-0.7c0,0,0,0,0,0C6.1,3.7,6.7,3.9,7.3,3.8z"/>
	<path fill-rule="evenodd" fill="#FFFFFF" d="M11.5,14c1.4,0,2.8,0,4.2,0c0,0.7,0,1.4,0,2.2c-2.2,0-4.4,0-6.7,0c0-1.2,0-2.5,0-3.8
		c0-0.2,0-0.4,0-0.5c0-0.1,0.4-0.4,0.5-0.5c1.1-0.9,2.1-1.7,3.2-2.7c0.1-0.1,0.5-0.3,0.5-0.5c0-0.2,0-0.4,0-0.6c0-0.6,0-1.1,0-1.8
		c-0.6,0-1.2,0-1.8,0c0,0.5,0,1.1,0,1.6c-0.8,0-1.6,0-2.5,0c0-0.6,0-1.2,0-1.8c0-0.2,0-0.4,0-0.6c0-0.2,0.5-0.5,0.6-0.7
		c0.2-0.2,0.4-0.5,0.7-0.7c1,0,2,0,3,0c0.3,0,0.7-0.1,1,0c0.1,0,0.3,0.2,0.4,0.3c0.2,0.2,0.4,0.4,0.7,0.7c0.1,0.1,0.3,0.2,0.3,0.3
		c0.1,0.2,0,0.8,0,1.1c0,0.9,0,1.7,0,2.6c0,0.2,0,0.4,0,0.5c0,0.1-0.4,0.4-0.5,0.5c-1.1,0.9-2.1,1.8-3.2,2.7
		c-0.1,0.1-0.5,0.3-0.5,0.5C11.4,13.3,11.6,13.8,11.5,14z"/>
</g>
</svg>
