<?xml version="1.0" encoding="utf-8"?>
<!-- Generator: Adobe Illustrator 18.1.1, SVG Export Plug-In . SVG Version: 6.00 Build 0)  -->
<svg version="1.1" baseProfile="tiny" id="Layer_1" xmlns="http://www.w3.org/2000/svg" xmlns:xlink="http://www.w3.org/1999/xlink"
	 x="0px" y="0px" viewBox="0 0 20 20" xml:space="preserve">
<g>
	<path fill-rule="evenodd" d="M20,9.2c0,0.5,0,1.1,0,1.6c-0.1,1.4-0.5,2.7-1.1,3.7c-1.1,2.1-2.7,3.7-4.9,4.6c-1.1,0.5-2.4,0.8-4,0.8
		c-3,0-5.3-1.2-6.9-2.7c-1.6-1.6-2.8-3.6-3.1-6.4c0-0.6,0-1.2,0-1.7c0.1-0.7,0.2-1.4,0.4-2c0.9-3,2.9-5.1,5.7-6.3
		C7.2,0.3,8.5,0,10,0c3,0,5.2,1.2,6.9,2.7C18.6,4.3,19.7,6.3,20,9.2z M10.3,5.8c0-0.2,0-0.5,0-0.7c0-0.1-0.2-0.2-0.3-0.4
		C9.8,4.5,9.6,4.4,9.4,4.1C9.3,4,9.1,3.8,9,3.8c-0.2-0.1-0.6,0-0.9,0c-0.9,0-1.8,0-2.7,0c-0.3,0.3-0.7,0.7-1,1
		C4.3,4.9,4.2,5.1,4.2,5.2c0,0.2,0,0.4,0,0.7c0,3.4,0,7,0,10.3c0.8,0,1.5,0,2.3,0c0-1.1,0-2.2,0-3.3c0.5,0,1.1,0,1.6,0
		c0,1.1,0,2.2,0,3.3c0.8,0,1.5,0,2.3,0C10.3,12.9,10.3,9.2,10.3,5.8z M11.8,3.8c0,4.1,0,8.2,0,12.3c1.5,0,2.9,0,4.4,0
		c0-0.6,0-1.3,0-1.9c-0.7,0-1.4,0-2.1,0c0-3.5,0-7,0-10.5C13.3,3.8,12.6,3.8,11.8,3.8C11.8,3.8,11.8,3.8,11.8,3.8z"/>
	<path fill-rule="evenodd" fill="#FFFFFF" d="M10.3,16.2c-0.8,0-1.5,0-2.3,0c0-1.1,0-2.2,0-3.3c-0.5,0-1.1,0-1.6,0
		c0,1.1,0,2.2,0,3.3c-0.8,0-1.5,0-2.3,0c0-3.3,0-6.9,0-10.3c0-0.2,0-0.5,0-0.7c0-0.1,0.2-0.3,0.3-0.4c0.3-0.3,0.7-0.7,1-1
		c0.9,0,1.8,0,2.7,0c0.3,0,0.6-0.1,0.9,0c0.1,0,0.3,0.2,0.4,0.3C9.6,4.4,9.8,4.5,10,4.8c0.1,0.1,0.3,0.2,0.3,0.4c0,0.2,0,0.4,0,0.7
		C10.3,9.2,10.3,12.9,10.3,16.2z M6.4,5.9c0,1.6,0,3.2,0,4.9c0.5,0,1.1,0,1.6,0c0-1.6,0-3.3,0-4.9C7.5,5.9,7,5.9,6.4,5.9
		C6.4,5.9,6.4,5.9,6.4,5.9z"/>
	<path fill-rule="evenodd" fill="#FFFFFF" d="M11.8,3.8c0.8,0,1.5,0,2.3,0c0,3.5,0,7,0,10.5c0.7,0,1.4,0,2.1,0c0,0.6,0,1.3,0,1.9
		c-1.5,0-2.9,0-4.4,0C11.8,12.1,11.8,8,11.8,3.8C11.8,3.8,11.8,3.8,11.8,3.8z"/>
	<path fill-rule="evenodd" d="M6.4,5.9c0.5,0,1,0,1.6,0c0,1.6,0,3.3,0,4.9c-0.5,0-1.1,0-1.6,0C6.4,9.2,6.4,7.6,6.4,5.9
		C6.4,5.9,6.4,5.9,6.4,5.9z"/>
</g>
</svg>
