<svg id="Kijkw-2020" xmlns="http://www.w3.org/2000/svg" viewBox="0 0 102 102">
  <title>Kijkw-2020-RGB-</title>
  <path d="M1,51a50,50,0,1,1,50,50A50.018,50.018,0,0,1,1,51Z" fill="#fff"/>
  <path d="M7.4,51A43.6,43.6,0,1,1,51,94.6,43.51,43.51,0,0,1,7.4,51ZM40.7,75.5c0-1.6-.1-5.4.4-7,.6-1.8,5.3-7.3,6.2-6.8.4.2-.5,5.4,1,5.4,1.3,0,.9-5.5,2.3-5.5s1,5.5,2.3,5.5c1.6,0,.6-5.2,1-5.4.9-.5,5.6,5,6.2,6.8.5,1.6.4,5.4.4,7,0,1-4.7,10.4-3.4,11.1,3.5,1.8,8.8-8.3,8.8-10.4.1-2-1-8.3-2.6-10.3-2-2.4-9.4-6.4-9.2-7.3.1-.6,9.5,2.5,10.8,3.2,1.3.6,6.6,4.3,7,5.2.8,1.5,1.4,12.3,3.4,12.2,4.6-.1,3-11.6,1.1-14.4-1.5-2.1-7.4-5.3-9.3-6s-12.3-2-12.3-3c0-.9,12-.4,14.7-.9,2.1-.4,10.8-4.1,12.5-5.9,2.6-2.7,5-14.4.2-19.4C81,28.3,79,43.7,77.9,45.2c-1.2,1.5-7.7,6.1-9.5,6.4-1.2.2-13.9,2.1-14.2,1.1-.3-.9,11.3-3.7,14-5.2,3.6-2,5.3-13.7,4.7-16.9-.6-4.2-8.7-17.7-14.5-15.6-1.6.5,8.5,14.5,8.9,17,.3,1.4-.1,11.4-1.6,12.4-.6.4-12.4,6.3-12.8,5.7-.5-.9,7.7-6.7,7.7-10,0-6.7-7.1-16.3-10-16.3-2.8,0-10,9.6-10,16.3,0,3.3,8.2,9.1,7.7,10-.4.6-12.2-5.3-12.7-5.7-1.6-1-2-11-1.7-12.4.4-2.5,10.5-16.5,9-17-5.9-2.1-14,11.4-14.6,15.6-.6,3.2,1.1,14.9,4.7,16.9,2.7,1.5,14.2,4.3,14,5.2-.3,1-13-.9-14.1-1.1-1.9-.3-8.4-4.9-9.5-6.4-1.2-1.5-3.1-16.9-4.3-15.6-4.7,5.1-2.5,16.7.1,19.4,1.7,1.8,10.4,5.5,12.5,5.9,2.8.5,14.6,0,14.6.9.1,1-10.2,2.3-12.2,3-1.9.7-7.8,3.9-9.3,6-1.9,2.8-3.5,14.3,1.1,14.4,2.1.1,2.6-10.7,3.4-12.2.4-.9,5.7-4.6,7-5.2,1.3-.7,10.7-3.8,10.8-3.2.1.9-7.2,4.9-9.2,7.3-1.6,2-2.6,8.3-2.6,10.3.1,2.1,5.3,12.2,8.8,10.4C45.5,85.9,40.6,76.5,40.7,75.5Z"/>
</svg>
