<?xml version="1.0" encoding="utf-8"?>
<!-- Generator: Adobe Illustrator 18.1.1, SVG Export Plug-In . SVG Version: 6.00 Build 0)  -->
<svg version="1.1" baseProfile="tiny" id="Layer_1" xmlns="http://www.w3.org/2000/svg" xmlns:xlink="http://www.w3.org/1999/xlink"
	 x="0px" y="0px" viewBox="0 0 20 20" xml:space="preserve">
<g>
	<path fill-rule="evenodd" d="M20,9.1c0,0.6,0,1.2,0,1.9c-0.3,2.8-1.5,4.8-3.2,6.4c-0.8,0.8-1.8,1.4-2.9,1.9c-1.1,0.5-2.5,0.8-4,0.8
		c-1.5,0-2.8-0.3-4-0.8c-1.1-0.5-2.1-1.1-2.9-1.9c-1.6-1.6-2.8-3.5-3.1-6.4c0-0.6,0-1.2,0-1.7c0.1-1.4,0.6-2.7,1.1-3.7
		c0.5-1.1,1.2-2,2.1-2.7C4.8,1.2,6.9,0.1,10,0c1.5,0,2.9,0.3,4,0.8c1.1,0.5,2.1,1.1,2.9,1.9C18.5,4.2,19.6,6.2,20,9.1z M7.5,1.7
		C6.8,1.9,6.3,2.6,5.9,3.1C5.5,3.7,5,4.4,4.8,5.1C4.6,5.8,4.8,6.8,5,7.5C5.1,8,5.3,8.7,5.7,9.1c0.2,0.2,0.6,0.3,0.9,0.4
		C7.3,9.7,8,9.9,8.7,10.2c0.1,0,0.3,0.1,0.4,0.2c-0.2,0.1-0.5,0.1-0.8,0c-0.3,0-0.6-0.1-0.8-0.1c-0.6-0.1-1.1-0.1-1.6-0.2
		C5.6,10.1,5.3,10,5.2,9.8C5,9.7,4.8,9.6,4.6,9.5c-0.3-0.2-0.8-0.6-1-0.9C3.5,8.4,3.4,8,3.4,7.8C3.2,6.8,3.1,5.9,2.7,5.1
		C2.2,5.5,2.1,6.4,2.1,7.3c0,0.8,0.2,1.8,0.6,2.2C3,9.9,3.6,10.1,4,10.3c0.5,0.2,1,0.5,1.5,0.6C6.1,11,6.7,10.9,7.3,11
		c0.3,0,0.6,0,0.9,0c0.3,0,0.6,0,0.8,0.1c-0.1,0.2-0.4,0.2-0.6,0.3c-0.2,0.1-0.5,0.1-0.7,0.1c-0.5,0.1-1,0.1-1.5,0.3
		C5.7,12,5.3,12.2,5,12.4c-0.4,0.2-0.8,0.5-1,0.8c-0.3,0.5-0.6,2-0.3,2.8c0.1,0.2,0.3,0.6,0.6,0.5c0.2,0,0.2-0.3,0.3-0.6
		c0.1-0.5,0.2-0.9,0.3-1.5c0-0.3,0.1-0.6,0.1-0.7c0.1-0.3,0.5-0.5,0.8-0.7c0.3-0.2,0.6-0.5,0.9-0.6C7,12.3,7.5,12.1,7.8,12
		c0.4-0.1,0.8-0.3,1.3-0.3C9,12,8.8,12.1,8.6,12.2c-0.2,0.1-0.4,0.3-0.6,0.4c-0.4,0.3-0.8,0.5-1.1,0.9c-0.2,0.3-0.3,0.7-0.4,1.1
		c-0.1,0.4-0.2,0.8-0.2,1.2c0,0.2,0.2,0.6,0.3,0.8C7,17.2,7.3,17.6,7.7,18c0.1,0.1,0.6,0.4,0.8,0.1c0.1-0.1-0.1-0.5-0.1-0.7
		C8.2,17,8,16.7,7.8,16.2c-0.1-0.2-0.2-0.4-0.2-0.6c-0.1-0.5,0-1.2,0.1-1.6c0,0,0,0,0,0c0.1-0.3,0.4-0.7,0.6-0.9
		c0.1-0.1,0.2-0.3,0.4-0.4c0.1-0.1,0.2-0.3,0.5-0.3c0.1,0.1,0,0.4,0,0.7c0,0.2,0,0.6,0.2,0.5c0.2,0,0.2-0.4,0.2-0.6
		c0-0.3,0.1-0.6,0.3-0.6c0.2,0,0.2,0.4,0.3,0.6c0.1,0.3,0.1,0.6,0.3,0.6c0.3,0,0.1-1.1,0.2-1.2c0.3,0.1,0.6,0.4,0.8,0.7
		c0.2,0.3,0.5,0.6,0.6,0.9c0.1,0.2,0.1,0.5,0.1,0.8c0,0.3,0,0.6,0,0.8c0,0.2-0.1,0.4-0.2,0.6c-0.1,0.2-0.2,0.4-0.3,0.6
		c-0.2,0.4-0.4,0.8-0.4,1.3c0.3,0.2,0.6,0,0.8-0.2c0.4-0.4,0.7-0.8,1-1.3c0.1-0.3,0.3-0.6,0.3-0.8c0-0.4-0.1-0.8-0.2-1.2
		c-0.1-0.4-0.2-0.8-0.3-1c-0.2-0.4-0.7-0.7-1.1-0.9c-0.2-0.1-0.4-0.3-0.6-0.4c-0.2-0.1-0.5-0.3-0.5-0.5c0.5,0,0.9,0.2,1.3,0.3
		c0.4,0.1,0.8,0.2,1.2,0.4c0.3,0.1,0.6,0.4,0.9,0.6c0.3,0.2,0.7,0.4,0.8,0.7c0.1,0.2,0.1,0.5,0.1,0.7c0,0.3,0.1,0.5,0.1,0.8
		c0.1,0.3,0.2,1.2,0.5,1.3c0.5,0.1,0.6-0.6,0.7-1c0-0.7-0.1-1.7-0.4-2.1c-0.2-0.4-0.6-0.7-1-0.9c-0.4-0.2-0.8-0.5-1.2-0.6
		c-0.4-0.2-1-0.2-1.5-0.3c-0.2,0-0.5-0.1-0.7-0.1c-0.2,0-0.5-0.1-0.6-0.3c0.2-0.2,0.5-0.1,0.8-0.1c0.3,0,0.6,0,0.9,0
		c0.6,0,1.2,0,1.7-0.1c0.5-0.1,1-0.4,1.5-0.6c0.6-0.3,1.3-0.5,1.6-1.1c0.6-1.1,0.7-3.4-0.2-4.2c-0.4,0.8-0.5,1.8-0.7,2.7
		c-0.1,0.3-0.1,0.7-0.2,0.9c-0.2,0.3-0.7,0.7-1,0.8c-0.3,0.2-0.8,0.6-1.2,0.7c-0.5,0.1-1.1,0.2-1.6,0.2c-0.3,0-0.6,0.1-0.8,0.1
		c-0.3,0-0.6,0.1-0.8,0c0.2-0.2,0.5-0.3,0.8-0.4c0.6-0.2,1.2-0.4,1.7-0.6c0.3-0.1,0.6-0.2,0.8-0.3c0.4-0.3,0.6-1.1,0.8-1.7
		c0.2-0.6,0.3-1.3,0.2-2c0-0.4-0.2-0.8-0.4-1.2c-0.2-0.4-0.4-0.7-0.6-1c-0.4-0.6-1-1.3-1.7-1.5c-0.2-0.1-0.4-0.1-0.6,0
		c0,0.4,0.3,0.7,0.4,1c0.4,0.6,0.7,1.2,1.1,1.9c0.2,0.3,0.5,0.7,0.5,1c0.1,0.5,0,1.1,0,1.5c0,0.3-0.1,1.1-0.3,1.3
		c-0.1,0.1-0.2,0.1-0.4,0.2c-0.6,0.3-1.2,0.6-1.8,0.9c-0.3,0.1-0.5,0.3-0.8,0.3c0.1-0.2,0.3-0.4,0.4-0.5C11,9.1,11.1,9,11.3,8.8
		c0.3-0.3,0.7-0.7,0.8-1.1c0.1-0.4-0.1-1-0.2-1.4c-0.3-0.7-0.6-1.3-1.1-1.9c-0.2-0.2-0.6-0.6-0.9-0.6C9.6,3.8,9.2,4.2,9,4.4
		C8.5,5,8.2,5.6,7.8,6.3C7.7,6.7,7.5,7.2,7.6,7.6c0,0.2,0.2,0.5,0.4,0.6c0.3,0.4,0.6,0.7,1,1c0.2,0.2,0.4,0.3,0.4,0.6
		c-0.6-0.1-1-0.4-1.6-0.6C7.6,9.1,7.4,9,7.1,8.8C6.9,8.7,6.5,8.6,6.4,8.5C6.2,8.2,6.1,7.5,6.1,7.2C6,6.7,6,6.1,6,5.6
		c0.1-0.3,0.3-0.7,0.5-1C6.9,4,7.3,3.4,7.7,2.8c0.2-0.3,0.4-0.7,0.4-1C8,1.7,7.7,1.7,7.5,1.7z"/>
	<path fill-rule="evenodd" fill="#FFFFFF" d="M8.1,1.8c-0.1,0.4-0.3,0.7-0.4,1C7.3,3.4,6.9,4,6.5,4.7C6.4,4.9,6.1,5.3,6,5.6
		C6,6.1,6,6.7,6.1,7.2c0,0.4,0.1,1,0.3,1.3c0.1,0.2,0.5,0.3,0.7,0.4C7.4,9,7.6,9.1,7.8,9.2c0.5,0.2,1,0.5,1.6,0.6
		c0-0.3-0.3-0.4-0.4-0.6c-0.3-0.3-0.6-0.6-1-1C7.8,8.1,7.6,7.8,7.6,7.6c-0.1-0.4,0.1-1,0.3-1.3C8.2,5.6,8.5,5,9,4.4
		c0.2-0.2,0.6-0.6,0.9-0.6c0.3,0,0.7,0.4,0.9,0.6c0.5,0.6,0.8,1.2,1.1,1.9c0.1,0.4,0.4,0.9,0.2,1.4c-0.1,0.4-0.6,0.8-0.8,1.1
		C11.1,9,11,9.1,10.8,9.3c-0.2,0.1-0.4,0.3-0.4,0.5c0.3,0,0.6-0.1,0.8-0.3c0.6-0.3,1.2-0.5,1.8-0.9c0.1-0.1,0.3-0.1,0.4-0.2
		c0.2-0.2,0.3-0.9,0.3-1.3c0-0.5,0.1-1,0-1.5c0-0.3-0.3-0.7-0.5-1c-0.4-0.6-0.7-1.2-1.1-1.9c-0.2-0.3-0.4-0.6-0.4-1
		c0.1-0.1,0.4-0.1,0.6,0C13,2,13.5,2.7,14,3.3c0.2,0.3,0.4,0.6,0.6,1C14.8,4.6,15,5,15,5.4c0.1,0.7-0.1,1.4-0.2,2
		C14.6,8,14.4,8.8,14,9.1c-0.2,0.2-0.5,0.2-0.8,0.3c-0.6,0.2-1.2,0.4-1.7,0.6c-0.3,0.1-0.6,0.1-0.8,0.4c0.3,0.1,0.6,0.1,0.8,0
		c0.3,0,0.6-0.1,0.8-0.1c0.6-0.1,1.2-0.1,1.6-0.2c0.4-0.1,0.8-0.4,1.2-0.7c0.3-0.2,0.8-0.5,1-0.8c0.1-0.2,0.2-0.6,0.2-0.9
		c0.2-0.9,0.3-1.9,0.7-2.7c0.9,0.8,0.8,3.1,0.2,4.2c-0.3,0.5-1,0.8-1.6,1.1c-0.4,0.2-1,0.5-1.5,0.6c-0.5,0.1-1.1,0.1-1.7,0.1
		c-0.3,0-0.6,0-0.9,0c-0.3,0-0.5,0-0.8,0.1c0.1,0.2,0.4,0.2,0.6,0.3c0.2,0.1,0.5,0.1,0.7,0.1c0.5,0.1,1,0.1,1.5,0.3
		c0.4,0.1,0.8,0.4,1.2,0.6c0.4,0.2,0.8,0.5,1,0.9c0.2,0.5,0.4,1.4,0.4,2.1c0,0.5-0.2,1.1-0.7,1c-0.3,0-0.4-0.9-0.5-1.3
		c0-0.2-0.1-0.5-0.1-0.8c0-0.3-0.1-0.5-0.1-0.7c-0.1-0.3-0.5-0.5-0.8-0.7c-0.3-0.2-0.6-0.4-0.9-0.6c-0.4-0.2-0.8-0.3-1.2-0.4
		c-0.4-0.1-0.8-0.3-1.3-0.3c0.1,0.3,0.3,0.4,0.5,0.5c0.2,0.1,0.4,0.3,0.6,0.4c0.4,0.3,0.8,0.5,1.1,0.9c0.2,0.3,0.2,0.6,0.3,1
		c0.1,0.4,0.2,0.8,0.2,1.2c0,0.3-0.2,0.6-0.3,0.8c-0.3,0.5-0.5,0.9-1,1.3c-0.2,0.2-0.5,0.4-0.8,0.2c0-0.5,0.2-0.9,0.4-1.3
		c0.1-0.2,0.2-0.4,0.3-0.6c0.1-0.2,0.2-0.4,0.2-0.6c0-0.2,0-0.5,0-0.8c0-0.3,0-0.6-0.1-0.8c-0.1-0.3-0.4-0.6-0.6-0.9
		c-0.2-0.3-0.5-0.6-0.8-0.7c-0.1,0.2,0.1,1.3-0.2,1.2c-0.2,0-0.2-0.4-0.3-0.6c0-0.2-0.1-0.6-0.3-0.6c-0.2,0-0.2,0.4-0.3,0.6
		c0,0.2-0.1,0.6-0.2,0.6c-0.2,0-0.2-0.4-0.2-0.5c0-0.3,0.1-0.6,0-0.7c-0.2,0-0.3,0.2-0.5,0.3c-0.1,0.1-0.2,0.2-0.4,0.4
		c-0.2,0.2-0.5,0.6-0.6,0.9c0,0,0,0,0,0c-0.1,0.4-0.1,1.1-0.1,1.6c0,0.2,0.2,0.4,0.2,0.6C8,16.7,8.2,17,8.3,17.5
		c0.1,0.2,0.2,0.5,0.1,0.7c-0.2,0.3-0.6,0-0.8-0.1c-0.4-0.4-0.7-0.8-0.9-1.3c-0.1-0.3-0.3-0.6-0.3-0.8c0-0.4,0.1-0.8,0.2-1.2
		c0.1-0.4,0.2-0.8,0.4-1.1c0.2-0.4,0.7-0.6,1.1-0.9c0.2-0.1,0.4-0.3,0.6-0.4C8.8,12.1,9,12,9.1,11.7c-0.5,0-0.9,0.2-1.3,0.3
		c-0.4,0.1-0.8,0.2-1.2,0.4c-0.3,0.1-0.6,0.4-0.9,0.6c-0.3,0.2-0.7,0.4-0.8,0.7c-0.1,0.2-0.1,0.5-0.1,0.7c-0.1,0.5-0.1,0.9-0.3,1.5
		c-0.1,0.2-0.1,0.5-0.3,0.6C4,16.5,3.7,16.2,3.7,16c-0.3-0.8,0-2.3,0.3-2.8c0.2-0.3,0.6-0.6,1-0.8c0.4-0.2,0.7-0.4,1.2-0.6
		c0.5-0.2,1-0.2,1.5-0.3c0.2,0,0.5-0.1,0.7-0.1c0.2,0,0.5-0.1,0.6-0.3C8.7,10.9,8.4,11,8.1,11c-0.3,0-0.6,0-0.9,0
		c-0.6,0-1.2,0-1.7-0.1c-0.5-0.1-1.1-0.4-1.5-0.6c-0.4-0.2-1-0.5-1.3-0.8C2.3,9.1,2.1,8.1,2.1,7.3c0-0.9,0.1-1.8,0.7-2.2
		c0.3,0.8,0.4,1.7,0.6,2.7C3.4,8,3.5,8.4,3.6,8.6c0.1,0.3,0.7,0.7,1,0.9C4.8,9.6,5,9.7,5.2,9.8c0.2,0.1,0.4,0.2,0.7,0.3
		c0.5,0.1,1,0.2,1.6,0.2c0.3,0,0.6,0.1,0.8,0.1c0.3,0,0.6,0.1,0.8,0c0-0.2-0.2-0.2-0.4-0.2C8,9.9,7.3,9.7,6.6,9.5
		C6.3,9.4,5.9,9.3,5.7,9.1C5.3,8.7,5.1,8,5,7.5C4.8,6.8,4.6,5.8,4.8,5.1c0.2-0.7,0.7-1.4,1.1-2c0.4-0.6,1-1.2,1.7-1.4
		C7.7,1.7,8,1.7,8.1,1.8z"/>
</g>
</svg>
