<svg id="Kijkw-2020" xmlns="http://www.w3.org/2000/svg" viewBox="0 0 102 102">
  <title>Kijkw-2020-RGB-</title>
  <g>
    <path d="M1,51a50,50,0,1,1,50,50A50.018,50.018,0,0,1,1,51Z" fill="#fff"/>
    <path d="M7.4,51A43.6,43.6,0,1,1,51,94.6,43.51,43.51,0,0,1,7.4,51ZM48.3,65.6c-3.6-6.7,1.5-8.3,1.2-10.4-.1-.9-4.9-1.1-8.3-3.1-3.5-2-3.6-8.8.7-11.4,5.8-3.5,8.9,6.1,10.4,11.3.6,2.3,3.2-2,7.3,1,7.5,5.3,5.7,24.1,2.8,31.5,11.8-3.2,21.9-15.6,22.5-24.7.8-9.3-5.6-6.8-5.2-10.1s10.2-17.9-.5-17.6c-10.2.2-3.9,12.3-3.8,16.5,0,2-2.9,2.2-4.9,2.8a18.669,18.669,0,0,0-.3-7.3c-1-3.6-7.1-2.5-6.7-6.9.4-4.2,10-17.1-1.2-18.2-12.7-1.3-2.6,14-3.5,18.5-.3,1.6-2.4,1.4-4.5,2.6-2.2-7.4-9.3-3.7-9.5-7.7-.2-4.1,6.6-17.1-4.2-16.6-11.7.6-1.2,14.3-.7,17.4s-5.8,1.4-7.3,8.4a45.09,45.09,0,0,0,.2,6.2c-1.7.4-4.9,3.3-5.3,1.5-1-4.4,5-19.4-5.7-17.4C11,34,22.8,45.8,23.4,50.5c.5,3.5-7.2.4-5.3,12.8,1.7,10.8,16.1,21.6,29.1,22.5C48.6,81.8,53,74.2,48.3,65.6Zm10,19.8c.3-3.7.5-10.1-1-9.9-1.3.1-4,6.8-6,10.3A53.742,53.742,0,0,0,58.3,85.4Z"/>
  </g>
</svg>
