<?xml version="1.0" encoding="utf-8"?>
<!-- Generator: Adobe Illustrator 18.1.1, SVG Export Plug-In . SVG Version: 6.00 Build 0)  -->
<svg version="1.1" baseProfile="tiny" id="Layer_1" xmlns="http://www.w3.org/2000/svg" xmlns:xlink="http://www.w3.org/1999/xlink"
	 x="0px" y="0px" viewBox="0 0 20 20" xml:space="preserve">
<g>
	<path fill-rule="evenodd" d="M20,9.2c0,0.5,0,1.1,0,1.6c-0.2,2.8-1.5,4.8-3,6.4c-1.6,1.6-3.7,2.7-6.6,2.8c-0.2,0-0.4,0-0.6,0
		c-1.4-0.1-2.7-0.4-3.8-0.9c-1.1-0.5-2-1.1-2.8-1.9C1.5,15.7,0.3,13.8,0,11c0-0.7,0-1.3,0-2c0.1-1.4,0.6-2.6,1.1-3.7
		c1.1-2.1,2.8-3.6,5-4.5C7.2,0.3,8.6,0,10.1,0c3,0.1,5.1,1.2,6.8,2.8C18.6,4.3,19.7,6.4,20,9.2z M7.4,15c0.2-0.1,0.3-0.3,0.5-0.3
		c0.2,0,0.4,0.1,0.6,0.1c0.2,0,0.4,0,0.5,0c0.5-0.2,1-0.7,1.3-1.1c1-1.1,1.8-2.2,2.8-3.3c0.2-0.2,0.4-0.5,0.7-0.6
		c0.3-0.1,0.5,0.1,0.8,0.2c0.4,0.2,0.8,0.4,1.2,0.6c0.2,0.1,0.5,0.2,0.7,0.2c0.4-0.1,0.2-0.6,0-0.9c-0.6-1-1.5-1.7-2.2-2.5
		c-0.1-0.1-0.3-0.3-0.3-0.5c0-0.4,0.4-0.8,0.7-0.9c0.2,0,0.4,0.1,0.7,0.2c0.2,0.1,0.5,0.2,0.6,0.2c0.4,0.1,1.2,0.4,1.3,0
		c0.1-0.2-0.1-0.5-0.2-0.7c-0.1-0.2-0.3-0.4-0.4-0.5c-0.6-0.7-1.3-1.3-2.1-1.8C14,3,13.6,2.7,13.1,2.6c-0.7-0.2-0.6,0.4-0.4,0.8
		c0.1,0.4,0.3,0.7,0.5,1.1c0.1,0.2,0.2,0.4,0.2,0.6c0,0.3-0.4,0.6-0.7,0.7c-0.3,0-0.5-0.1-0.7-0.2c-0.8-0.4-1.5-0.8-2.3-1.2
		C9.4,4.3,8.9,4,8.6,4.1C8.3,4.2,8.5,4.7,8.7,5c0.2,0.5,0.4,0.7,0.7,1.2c0.1,0.2,0.3,0.5,0.2,0.7c0,0.2-0.3,0.4-0.4,0.6
		c-0.8,1-1.6,1.8-2.5,2.7c-0.3,0.4-0.7,0.8-0.9,1.2c-0.1,0.2-0.2,0.4-0.2,0.7c0,0.2,0.1,0.5,0.1,0.7c0,0.2-0.2,0.3-0.2,0.5
		c-0.2,0.4,0,0.9,0.2,1.2c-0.3,0.3-0.5,0.7-0.8,1.1c-0.2,0.4-0.5,0.8-0.6,1.3c0.3,0,0.4-0.2,0.6-0.4c0.6-0.5,1.1-1,1.5-1.5
		C6.8,15.1,7.1,15.1,7.4,15z"/>
	<path fill-rule="evenodd" fill="#FFFFFF" d="M6.4,14.9c-0.5,0.5-1,1-1.5,1.5c-0.2,0.1-0.4,0.3-0.6,0.4c0.1-0.5,0.3-0.9,0.6-1.3
		c0.2-0.4,0.5-0.7,0.8-1.1c-0.2-0.3-0.4-0.7-0.2-1.2c0.1-0.2,0.2-0.3,0.2-0.5c0-0.2-0.1-0.5-0.1-0.7c0-0.3,0.1-0.5,0.2-0.7
		c0.2-0.4,0.6-0.8,0.9-1.2c0.8-0.9,1.7-1.7,2.5-2.7C9.3,7.3,9.5,7,9.6,6.9c0-0.2-0.1-0.5-0.2-0.7C9.1,5.7,8.9,5.5,8.7,5
		c-0.1-0.3-0.4-0.7,0-0.9C8.9,4,9.4,4.3,9.7,4.4c0.8,0.4,1.5,0.8,2.3,1.2c0.2,0.1,0.4,0.2,0.7,0.2c0.3,0,0.7-0.4,0.7-0.7
		c0-0.2-0.1-0.4-0.2-0.6c-0.2-0.4-0.3-0.7-0.5-1.1c-0.2-0.4-0.2-1,0.4-0.8C13.6,2.7,14,3,14.4,3.3c0.8,0.5,1.5,1.1,2.1,1.8
		c0.1,0.2,0.3,0.3,0.4,0.5c0.1,0.2,0.3,0.5,0.2,0.7c-0.1,0.4-1,0.1-1.3,0c-0.2-0.1-0.4-0.2-0.6-0.2C15,6,14.8,5.9,14.5,5.9
		c-0.3,0-0.7,0.5-0.7,0.9c0,0.2,0.2,0.3,0.3,0.5c0.7,0.8,1.6,1.5,2.2,2.5c0.2,0.3,0.4,0.8,0,0.9c-0.2,0.1-0.5-0.1-0.7-0.2
		c-0.4-0.2-0.8-0.4-1.2-0.6c-0.2-0.1-0.5-0.2-0.8-0.2c-0.2,0.1-0.5,0.4-0.7,0.6c-1,1.1-1.8,2.2-2.8,3.3c-0.3,0.4-0.8,1-1.3,1.1
		c-0.2,0.1-0.3,0.1-0.5,0c-0.2,0-0.4-0.1-0.6-0.1c-0.2,0-0.3,0.2-0.5,0.3C7.1,15.1,6.8,15.1,6.4,14.9z M9.6,7.8
		c0,0.2,0.3,0.3,0.5,0.4c0.5,0.2,0.7,0.4,1.1,0.7c0.2,0.1,0.4,0.3,0.6,0.2c0.3-0.1,0.2-0.7,0-0.9c-0.3-0.4-1.1-0.7-1.8-0.6
		C9.8,7.6,9.6,7.6,9.6,7.8z M7.8,9.5c0,0.3,0.5,0.4,0.6,0.4c0.6,0.2,0.9,0.5,1.3,0.8c0.2,0.2,0.8,0.6,0.9,0.1
		c0.1-0.3-0.2-0.7-0.4-0.9C10,9.5,9.1,9.2,8.3,9.3C8.2,9.3,7.8,9.3,7.8,9.5z M6.6,11.5c0,0.2,0.2,0.2,0.3,0.2
		c0.5,0.1,0.7,0.3,1.1,0.6c0.1,0.1,0.5,0.5,0.8,0.4c0.1,0,0.2-0.3,0.2-0.5c0-0.2-0.1-0.4-0.3-0.5c-0.3-0.3-1-0.6-1.5-0.5
		C7,11.1,6.5,11.2,6.6,11.5z"/>
	<path fill-rule="evenodd" d="M10,7.6c0.8-0.1,1.5,0.2,1.8,0.6c0.2,0.2,0.3,0.8,0,0.9c-0.2,0.1-0.5-0.1-0.6-0.2
		c-0.4-0.2-0.6-0.5-1.1-0.7C9.9,8.1,9.6,8,9.6,7.8C9.6,7.6,9.8,7.6,10,7.6z"/>
	<path fill-rule="evenodd" d="M8.3,9.3c0.8-0.1,1.6,0.2,2.1,0.6c0.2,0.2,0.4,0.5,0.4,0.9c-0.1,0.6-0.7,0.1-0.9-0.1
		c-0.4-0.3-0.8-0.6-1.3-0.8C8.3,9.9,7.8,9.8,7.8,9.5C7.8,9.3,8.2,9.3,8.3,9.3z"/>
	<path fill-rule="evenodd" d="M7.2,11.1c0.5,0,1.2,0.3,1.5,0.5C8.8,11.8,9,12,9,12.2c0,0.2-0.1,0.5-0.2,0.5
		c-0.3,0.1-0.6-0.3-0.8-0.4c-0.4-0.3-0.6-0.5-1.1-0.6c-0.1,0-0.3,0-0.3-0.2C6.5,11.2,7,11.1,7.2,11.1z"/>
</g>
</svg>
