<svg id="drugs_en_alcohol" xmlns="http://www.w3.org/2000/svg" viewBox="0 0 102 102">
  <title>drugs &amp; alchohol</title>
  <g>
    <path d="M1,51a50,50,0,1,1,50,50A50.018,50.018,0,0,1,1,51Z" fill="#fff"/>
    <path d="M7.4,51A43.6,43.6,0,1,1,51,94.6,43.51,43.51,0,0,1,7.4,51Zm28,21.3a4.516,4.516,0,0,0,5.8-.5c1.3-1.3,3.5,2,7.5-1.3C53,66.8,63.5,52.6,66.4,50.4c3-2.4,11.1,5.8,13.1,3C82,50,67.8,39.2,67.8,37.1c0-1.8,2-3.8,3.1-3.8,2,.1,9.3,4.3,11.2,2.1,3-3.4-16.4-19.1-19.6-16.3-2.3,1.9,3.6,9.4,3.1,10.8a3.92,3.92,0,0,1-3.5,2.7c-1.9,0-15.1-8.8-17.3-7.2-2.4,1.7,5,9.7,4.1,12.1-1,2.6-14.7,16.1-16.4,19.4-2,3.8.2,5.2-1,7.1a5.128,5.128,0,0,0,.3,6.2c-4.1,4.9-6.4,9.7-5.8,10.3C26.4,81,30.8,77.9,35.4,72.3ZM37,58.2c-2-.6-.6-2.1,1.7-2.2,2.9-.2,6.7,1.6,7.6,4.1.7,1.6.1,3.8-1.5,2.5A19.477,19.477,0,0,0,37,58.2Zm7.4-7.5c-4.3-1.2-3.4-3,.8-2.9,7.1.4,10.2,5.2,8.7,7.4C52.5,57.3,49,52.1,44.4,50.7Zm7-7.8c-3.5-1.4-2.4-2.7,1.1-2.4,6.4.5,8,4.2,6.8,6C58.2,48.2,54.6,44.4,51.4,42.9Z"/>
  </g>
</svg>
