<svg id="Kijkw-2020" xmlns="http://www.w3.org/2000/svg" viewBox="0 0 102 102">
  <title>Kijkw-2020-RGB-</title>
  <g>
    <path d="M1,51a50,50,0,1,1,50,50A50.018,50.018,0,0,1,1,51Z" fill="#fff"/>
    <path d="M7.4,51A43.6,43.6,0,1,1,51,94.6,43.51,43.51,0,0,1,7.4,51ZM51,78.4c-2.4.2-6.1-2.5-6.1-5.9a11.179,11.179,0,0,1,1.3-4.8,8.02,8.02,0,0,1-9.1-2.8,8.677,8.677,0,0,1-1.4-5,17.414,17.414,0,0,1-8.8-5.5c-2.7-3.1,1-6.1,1.8-4.9,3.9,5.7,14,9.5,17.9,8.4A3.641,3.641,0,0,0,49,55.8c.9-3-2.6-7.1-10.9-12.7a14.971,14.971,0,0,0-8.6-2.8c-7.9,0-13.2,6.9-13.2,15,0,10.8,10,14.3,15.3,12.5-2.1,3.4-.5,9.7,3.3,12.4C38.4,82.7,47.2,83.8,51,78.4Zm21.7,2.7s-1-8.9-1.4-11.6c6.4-3.4,12.1-6.7,12.1-6.7a3.191,3.191,0,0,0-.3-5.5s-6.5-3.4-13.5-6.8A170.571,170.571,0,0,0,80.7,36.1c1.9-2.6.9-7.1-4.1-6.4L59.8,32.2c-.1-5.8-.7-15-.7-15-.1-1.6-2.4-2.2-3.6-1-2,1.7-7.2,6.4-11.5,10.6-2.4-2.2-9.9-8.9-9.9-8.9a1.893,1.893,0,0,0-2.9,1.7l.1,13.7c0,1.8,2.3,1.2,2.5,0L35,24l7.1,5.8c1.4.8,2.4.7,3.9-.3l8.3-5.9L56,34.4a2.038,2.038,0,0,0,1.9,1.9l15.7-.1L65,49.8a1.829,1.829,0,0,0,.1,2.4l11.7,8.7-7.9,5.5a3.318,3.318,0,0,0-1.6,3l1.6,9.3-8.5-1a.741.741,0,0,0-1,.6c-.2.6,0,1.2.4,1.3l11,3.9C71.7,83.7,73,83,72.7,81.1ZM47.2,36.5c-3.7-4.3-9.2-1.2-13,1.7a27.2,27.2,0,0,1,7,3.1,40.207,40.207,0,0,1,5,4.2C48.8,43,50,39.8,47.2,36.5Zm6.7,23.6c3.9-2.9,8.8-7.7,5.3-12.6-2.7-3.8-6.9-3.8-11-.6,3,3,5,6.7,3.9,9.9A6.22,6.22,0,0,1,48,60.6a16.181,16.181,0,0,1-8.7-.2,4.448,4.448,0,0,0,.9,2C42.3,65.1,46.1,66.1,53.9,60.1Zm6.2,12.2c3-2.3,6.5-5.7,3.8-9.5s-6.4-1.5-9.4.8c-5.5,4.1-6.2,7.5-4.6,9.7C51.1,74.8,55.2,76.3,60.1,72.3Z"/>
  </g>
</svg>
