<?xml version="1.0" encoding="utf-8"?>
<!-- Generator: Adobe Illustrator 18.1.1, SVG Export Plug-In . SVG Version: 6.00 Build 0)  -->
<svg version="1.1" baseProfile="tiny" id="Layer_1" xmlns="http://www.w3.org/2000/svg" xmlns:xlink="http://www.w3.org/1999/xlink"
	 x="0px" y="0px" viewBox="0 0 20 20" xml:space="preserve">
<g>
	<path fill-rule="evenodd" d="M20,9.2c0,0.5,0,1.1,0,1.7c-0.3,2.9-1.5,4.9-3.1,6.4c-0.8,0.8-1.8,1.4-2.9,1.9
		c-1.1,0.5-2.4,0.8-3.9,0.8c-3.1,0-5.2-1.2-6.9-2.7C1.5,15.8,0.4,13.8,0,11c0-0.7,0-1.3,0-2c0.1-1.4,0.6-2.6,1.1-3.7
		c0.6-1.1,1.3-1.9,2.1-2.7C4.9,1.1,7,0,10.1,0c3,0,5.3,1.3,6.8,2.7C18.5,4.3,19.7,6.3,20,9.2z M11.9,2.9c0-0.5,0-1.1-0.5-1
		c-0.3,0-0.6,0.4-0.8,0.6C9.8,3.1,9,3.9,8.4,4.5c-0.7-0.6-1.2-1-1.8-1.6C6.4,2.7,6.1,2.4,5.9,2.3c-0.5,0-0.5,0.5-0.4,1
		c0,0.7,0,1.3,0,1.9c0,0.2,0,0.8,0.1,0.9c0.1,0.1,0.3,0,0.4,0C6,6,6,5.8,6.1,5.6C6.2,5,6.3,4.3,6.3,3.8C6.6,4,6.9,4.3,7.2,4.5
		c0.3,0.2,0.6,0.6,0.9,0.7C8.5,5.4,8.8,5.1,9,4.9c0.5-0.4,1-0.7,1.4-1c0.1-0.1,0.2-0.2,0.3-0.2c0.1,0.6,0.2,1.3,0.3,2
		c0.1,0.4,0.1,0.8,0.4,0.9c0.2,0.1,0.6,0,0.9,0c0.9,0,1.9,0,2.8,0c-0.5,0.9-1.1,1.7-1.6,2.5c-0.1,0.2-0.5,0.6-0.5,0.9
		c0,0.2,0.5,0.4,0.7,0.6c0.7,0.6,1.4,1.1,2.2,1.6c-0.5,0.3-1,0.7-1.5,1c-0.2,0.1-0.4,0.2-0.5,0.4c-0.3,0.3-0.2,0.6-0.1,1
		c0.1,0.6,0.2,1.2,0.3,1.7c-0.7-0.1-1.4-0.2-2.1-0.2c-0.1,0.1-0.2,0.2-0.1,0.3c0.1,0.1,0.5,0.2,0.6,0.3c0.5,0.2,0.9,0.3,1.4,0.5
		c0.2,0.1,0.5,0.2,0.7,0.2c0.4,0,0.3-0.6,0.3-1c-0.1-0.8-0.2-1.5-0.3-2.2c0.7-0.4,1.5-0.8,2.2-1.2c0.2-0.1,0.6-0.3,0.7-0.4
		c0.2-0.2,0.2-0.6,0.1-0.8c-0.1-0.2-0.5-0.4-0.8-0.6c-0.9-0.5-1.8-0.9-2.7-1.3c0.7-0.8,1.4-1.7,2-2.6c0.2-0.3,0.5-0.6,0.6-0.9
		c0.1-0.3,0.1-0.7,0-0.9c-0.3-0.5-1.1-0.3-1.8-0.2c-1,0.2-2.2,0.3-3.1,0.4C12,4.7,12,3.8,11.9,2.9z M9.5,7.5c0-0.4-0.3-0.8-0.5-1
		C8.1,5.7,6.8,6.6,6.2,7.1c1.2,0.3,2,0.9,2.7,1.6C9.2,8.4,9.5,8.1,9.5,7.5z M4.6,11c-0.2-0.2-0.4-0.4-0.4-0.6
		C4.2,10,4.4,9.5,4.8,9.6C4.9,9.6,5,9.9,5.1,10c0.4,0.4,0.8,0.8,1.4,1.1c0.6,0.3,1.2,0.6,1.9,0.6c0.7,0,1.3-0.3,1.1-1
		C9.4,10.2,9,9.8,8.7,9.5C8.4,9.2,8,8.9,7.7,8.6C6.9,8.1,6.1,7.5,4.9,7.6c-1.6,0.1-2.6,1.5-2.8,3c-0.2,1,0.1,1.8,0.4,2.4
		c0.3,0.6,1,1,1.8,1.1c0.6,0,0.9,0,1.3-0.2c-0.1,0.2-0.2,0.5-0.2,0.8c0,1,0.5,1.7,1.2,2.1c1,0.6,2.6,0.4,3.3-0.4
		c0-0.1,0.1-0.1,0.1-0.2c-0.6,0-1.1-0.5-1.3-0.9c-0.2-0.5,0.1-1.1,0.3-1.5c-1.4,0.4-2.4-0.5-2.4-1.8C5.7,11.8,5.1,11.5,4.6,11z
		 M8.5,13.1c0.5,0,0.9-0.2,1.3-0.4c0.7-0.4,1.4-0.9,1.9-1.5c0.3-0.3,0.5-0.8,0.5-1.2c0-0.4-0.3-0.8-0.6-1.1
		c-0.6-0.5-1.7-0.3-2.2,0.2c0.4,0.5,1,1.1,0.9,1.9c-0.1,1.3-1.7,1.6-3,1.2C7.5,12.7,7.9,13.1,8.5,13.1z M11.5,12.4
		c-0.3,0.2-0.7,0.4-1,0.7c-0.4,0.3-1,0.8-1,1.5c0,0.6,0.6,0.8,1.1,0.8c0.6,0,1-0.3,1.4-0.6c0.4-0.3,0.8-0.6,1-1
		c0.3-0.6-0.1-1.3-0.5-1.5c-0.1-0.1-0.3-0.1-0.4-0.1C11.9,12.3,11.7,12.3,11.5,12.4z"/>
	<path fill-rule="evenodd" fill="#FFFFFF" d="M12,5.7c0.9-0.1,2.1-0.3,3.1-0.4c0.7-0.1,1.5-0.3,1.8,0.2c0.2,0.2,0.2,0.6,0,0.9
		c-0.1,0.3-0.4,0.6-0.6,0.9c-0.6,0.9-1.3,1.8-2,2.6c0.9,0.4,1.8,0.9,2.7,1.3c0.3,0.1,0.7,0.3,0.8,0.6c0.1,0.2,0.1,0.6-0.1,0.8
		c-0.2,0.2-0.5,0.3-0.7,0.4c-0.7,0.4-1.5,0.8-2.2,1.2c0.1,0.7,0.2,1.4,0.3,2.2c0,0.4,0.2,1-0.3,1c-0.2,0-0.5-0.2-0.7-0.2
		c-0.5-0.2-0.9-0.3-1.4-0.5c-0.1,0-0.6-0.1-0.6-0.3c0-0.1,0-0.2,0.1-0.3c0.7,0.1,1.4,0.2,2.1,0.2c-0.1-0.5-0.2-1.1-0.3-1.7
		c-0.1-0.4-0.1-0.7,0.1-1c0.1-0.1,0.3-0.2,0.5-0.4c0.5-0.3,1-0.7,1.5-1c-0.7-0.5-1.4-1.1-2.2-1.6c-0.2-0.1-0.6-0.3-0.7-0.6
		c0-0.3,0.4-0.8,0.5-0.9c0.5-0.9,1.1-1.7,1.6-2.5c-0.9,0-1.9,0-2.8,0c-0.3,0-0.7,0-0.9,0c-0.3-0.1-0.3-0.5-0.4-0.9
		c-0.1-0.6-0.2-1.4-0.3-2c-0.1,0-0.2,0.1-0.3,0.2C10,4.2,9.5,4.6,9,4.9C8.8,5.1,8.5,5.4,8.1,5.2C7.8,5.1,7.5,4.8,7.2,4.5
		C6.9,4.3,6.6,4,6.3,3.8C6.3,4.3,6.2,5,6.1,5.6C6,5.8,6,6,5.9,6.1c-0.1,0.1-0.3,0.1-0.4,0C5.4,6.1,5.5,5.5,5.5,5.3
		c0-0.7,0-1.2,0-1.9c0-0.5-0.1-1.1,0.4-1c0.2,0,0.5,0.3,0.7,0.5c0.6,0.6,1.1,1,1.8,1.6c0.6-0.6,1.4-1.3,2.1-2
		c0.2-0.2,0.5-0.6,0.8-0.6c0.6,0,0.5,0.5,0.5,1C12,3.8,12,4.7,12,5.7z"/>
	<path fill-rule="evenodd" fill="#FFFFFF" d="M8.9,8.7C8.1,8,7.3,7.4,6.2,7.1C6.8,6.6,8.1,5.7,9,6.5c0.3,0.2,0.5,0.6,0.5,1
		C9.5,8.1,9.2,8.4,8.9,8.7z"/>
	<path fill-rule="evenodd" fill="#FFFFFF" d="M6.5,12.1c0,1.3,1.1,2.2,2.4,1.8c-0.2,0.4-0.5,1-0.3,1.5c0.2,0.4,0.6,0.9,1.3,0.9
		c0,0,0,0.1-0.1,0.2c-0.7,0.7-2.3,0.9-3.3,0.4c-0.7-0.4-1.2-1.2-1.2-2.1c0-0.3,0.1-0.6,0.2-0.8C5.1,14,4.8,14,4.2,14
		c-0.9-0.1-1.5-0.4-1.8-1.1c-0.3-0.6-0.5-1.5-0.4-2.4c0.2-1.5,1.3-2.9,2.8-3c1.2-0.1,2,0.5,2.8,1.1c0.4,0.3,0.7,0.5,1,0.9
		c0.3,0.3,0.7,0.7,0.8,1.1c0.2,0.7-0.4,1-1.1,1c-0.7,0-1.3-0.3-1.9-0.6c-0.6-0.3-1.1-0.7-1.4-1.1C5,9.9,4.9,9.6,4.8,9.6
		C4.4,9.5,4.2,10,4.2,10.4c0,0.2,0.2,0.4,0.4,0.6C5.1,11.5,5.7,11.8,6.5,12.1z"/>
	<path fill-rule="evenodd" fill="#FFFFFF" d="M7.3,12.2c1.3,0.4,2.9,0.1,3-1.2c0-0.8-0.6-1.4-0.9-1.9c0.5-0.5,1.5-0.7,2.2-0.2
		c0.3,0.3,0.6,0.7,0.6,1.1c0,0.5-0.2,0.9-0.5,1.2c-0.5,0.6-1.2,1.1-1.9,1.5c-0.4,0.2-0.8,0.4-1.3,0.4C7.9,13.1,7.5,12.7,7.3,12.2z"
		/>
	<path fill-rule="evenodd" fill="#FFFFFF" d="M12.1,12.3c0.1,0,0.3,0,0.4,0.1c0.4,0.2,0.8,0.9,0.5,1.5c-0.2,0.4-0.6,0.7-1,1
		c-0.4,0.3-0.8,0.6-1.4,0.6c-0.5,0-1.1-0.3-1.1-0.8c0-0.7,0.6-1.2,1-1.5c0.3-0.3,0.6-0.5,1-0.7C11.7,12.3,11.9,12.3,12.1,12.3z"/>
</g>
</svg>
