<svg id="Kijkw-2020" xmlns="http://www.w3.org/2000/svg" viewBox="0 0 102 102">
  <title>Kijkw-2020-RGB-</title>
  <g>
    <path d="M1,51a50,50,0,1,1,50,50A50.018,50.018,0,0,1,1,51Z" fill="#fff"/>
    <path d="M7.4,51A43.6,43.6,0,1,1,51,94.6,43.51,43.51,0,0,1,7.4,51Zm23.1-.3c1.3-.2,9.1,7.4,11.6,6.3,2.6-1.3,3-12.7,4-13.8.6-.8,7.8-2.9,10.5-4.2,1-.6.8-1.8-.4-1.8-3,.4-11,2.1-12.2,3-1.5,1.1-2.4,9.8-3.7,10.7-1.1.6-10.1-8.8-12.8-7.5-3.4,1.6-3.3,15.1-6.8,16.2-6.8,2-3.5,12.1,3.3,8.2C28.7,65.2,28.9,51.1,30.5,50.7ZM46.7,30.1c.9-.1,4.3,1.8,5.7,2.7.7.5,1.5-.2.8-1.1-1.2-1.7-4.6-5-6.2-5-1.7,0-4.6,3.5-6,3.2-1-.2-2.5-6.7-4.3-7.5-2.6-1.1-12.4.4-10.8,6s6.1-1.8,8.9-1.3c1.6.3,2.8,7.4,4.8,8C41.7,35.6,45.6,30.2,46.7,30.1ZM59.3,72.9c2.7-.3,6.1,12.3,8.7,11.5,2-.7-1-9-.8-13.8.3-5.7,2.7-6.8,3.2-10.6.5-4.6-4-3.3-3.1-6.8.5-1.8,3.7-1.7,8.4-7.9,4-5.4,7-16.1,1.5-20.4-5.2-4-12.5-2.7-14.8,3.4,12.7,1.8,11.8,13.6,8.1,17.8-2.9,3.4-7.4,2.2-11.5-3.9-2.4,7.4,4.3,7,2.4,10.1-1.4,2.2-4-.1-7.2,3.2-6.1,6.5-2.3,31.4,2.3,32.6C59.1,88.7,56.5,73.3,59.3,72.9Z"/>
  </g>
</svg>
