<svg id="Kijkw-2020" xmlns="http://www.w3.org/2000/svg" viewBox="0 0 102 102">
  <title>Kijkw-2020-RGB-</title>
  <g>
    <path d="M1,51a50,50,0,1,1,50,50A50.018,50.018,0,0,1,1,51Z" fill="#fff"/>
    <path d="M7.4,51a43.6,43.6,0,0,1,87.2,0C94.4,75.1,74.8,94.6,51,94.6A43.832,43.832,0,0,1,7.4,51Zm8.7-2.6a1.223,1.223,0,0,0,1.8.3c.4-.2.6-1.2.3-2,.4.4,1.3.8,1.8.3.7-.5.8-3.2.2-4.8-1-2.1-3.5-1.3-3.3,1.3-1.2-.9-3,1.2-2,3.1-1.2-.9-2.7,1.5-1.2,3.4.9,1.1,2.1,1,2.5.5A2,2,0,0,0,16.1,48.4ZM34.7,75c-2.6-4-6,.6-10.5-6.4C20,62.4,28.8,56.4,28,51.9c-.5-3.9-3.9-4.2-7-3-2.8,1.2-5.3,4.2-5.1,7.5.3,3.6,1.3,7.1,6.3,14.8,5.1,8.1,8.4,10.4,10.7,9.8C35.6,80.4,36,76.9,34.7,75ZM26.9,38.4a2.68,2.68,0,0,0-5.2.7c-.3,2.4,1,7.1,2.3,7.3C25.6,46.6,28,41.2,26.9,38.4ZM39.1,59.9c-.7-.4-1.6.2-2,1a2.84,2.84,0,0,0-.6-2.6,1.515,1.515,0,0,0-2,.7,2.552,2.552,0,0,0-.3-2.6c-.5-.3-1.9-.2-2.7,1.4-1.4,2.7.4,5.4,1.9,4.1-.8,2.4,1.5,4.7,2.7,3.3.1,3.2,3,3.7,3.8.8C40.4,63.9,40.1,60.4,39.1,59.9Zm8.3-7.8c-.4-5.1-9-8.2-7-16.4,2.8-10.7,6.8-6.4,8.4-11.6.8-2.5-.1-5.9-3.7-6.4-2.6-.4-5.8,5.1-8.8,15.5-3,10.1-3.5,13.9-2.7,17.7.7,3.6,5.1,6.8,8.3,7.1C45.3,58.3,47.9,56.5,47.4,52.1Zm-3.7,8.1c-1.4.2-2.5,6.3-2.1,9,.6,3.4,4.7,4.1,5.9.9C48.7,66.7,45.5,60,43.7,60.2Zm24.8-9.3c.8-3.8.2-7.6-2.7-17.7-3-10.4-6.2-15.9-8.8-15.5-3.7.5-4.4,3.9-3.7,6.4,1.6,5.2,5.5.9,8.3,11.6,2.1,8.2-6.5,11.3-7,16.4-.4,4.4,2.2,6.2,5.6,5.9C63.4,57.7,67.8,54.5,68.5,50.9ZM60.4,69.2c.5-2.7-.6-8.8-2.1-9-1.8-.2-4.9,6.5-3.7,9.9C55.8,73.3,59.8,72.6,60.4,69.2Zm5.5-4c1.2,1.4,3.6-.9,2.7-3.3,1.5,1.3,3.3-1.4,1.9-4.1-.8-1.6-2.2-1.7-2.6-1.4a2.8,2.8,0,0,0-.4,2.6,1.469,1.469,0,0,0-2-.7,3.155,3.155,0,0,0-.6,2.6c-.4-.8-1.3-1.4-1.9-1-1,.5-1.4,4-.9,6.1C62.9,68.9,65.9,68.4,65.9,65.2Zm14,6c4.9-7.7,6-11.2,6.3-14.8.2-3.3-2.4-6.3-5.2-7.5-3.1-1.2-6.3-.9-6.9,3-.8,4.5,7.9,10.5,3.8,16.7-4.6,7-8,2.4-10.6,6.4-1.3,1.9-.8,5.4,1.8,6C71.4,81.6,74.7,79.3,79.9,71.2Zm.4-32.1a2.622,2.622,0,0,0-5.1-.7c-1.2,2.8,1.2,8.2,2.9,8C79.3,46.2,80.6,41.5,80.3,39.1Zm8,10.9c1.5-1.9.1-4.3-1.2-3.4,1.1-1.9-.8-4-2-3.1.3-2.6-2.3-3.4-3.2-1.3-.7,1.6-.6,4.3.2,4.8.5.5,1.3.1,1.7-.3a2.367,2.367,0,0,0,.3,2,1.223,1.223,0,0,0,1.8-.3,1.775,1.775,0,0,0,0,2.1A1.586,1.586,0,0,0,88.3,50Z"/>
  </g>
</svg>
