<?xml version="1.0" standalone="no"?>
<!DOCTYPE svg PUBLIC "-//W3C//DTD SVG 20010904//EN"
 "http://www.w3.org/TR/2001/REC-SVG-20010904/DTD/svg10.dtd">
<svg version="1.0" xmlns="http://www.w3.org/2000/svg"
 width="16.000000pt" height="16.000000pt" viewBox="0 0 16.000000 16.000000"
 preserveAspectRatio="xMidYMid meet">
<metadata>
Created by potrace 1.11, written by Peter Selinger 2001-2013
</metadata>
<g transform="translate(0.000000,16.000000) scale(0.004000,-0.004000)"
fill="#000000" stroke="none">
<path d="M1343 3269 c-23 -4 -54 -14 -70 -22 -45 -24 -1132 -1116 -1156 -1162
-30 -58 -28 -130 5 -186 15 -24 278 -294 585 -600 479 -477 564 -557 599 -567
118 -34 149 -14 444 282 l245 246 250 -250 c265 -264 303 -293 382 -289 84 5
103 21 677 595 334 335 561 570 572 592 24 49 23 136 -1 182 -10 19 -267 283
-570 587 -584 584 -593 592 -684 593 -80 0 -117 -28 -375 -286 -135 -134 -248
-244 -252 -244 -4 0 -115 108 -247 241 -133 133 -250 247 -262 255 -42 27 -99
41 -142 33z m81 -84 c17 -8 141 -125 275 -259 l245 -245 -278 -277 c-159 -159
-285 -293 -297 -316 -11 -22 -21 -59 -22 -81 -2 -91 7 -104 312 -410 l286
-287 -235 -236 c-129 -129 -249 -244 -267 -255 -45 -28 -77 -32 -119 -14 -24
10 -216 194 -577 556 -298 298 -550 553 -559 568 -22 32 -23 92 -4 129 20 38
1094 1108 1131 1126 38 20 68 20 109 1z m2126 -1175 c-1 -37 -390 -434 -391
-399 -1 31 -1 790 0 806 1 7 89 -76 196 -185 151 -152 195 -202 195 -222z
m-1690 155 c62 -18 92 -82 71 -147 -15 -45 -60 -71 -127 -72 -30 -1 -55 -5
-55 -11 -1 -5 -3 -28 -4 -50 -1 -22 -3 -45 -4 -50 0 -6 -12 -12 -26 -13 -29
-2 -26 -20 -26 201 0 75 2 141 5 145 6 10 132 8 166 -3z m374 -10 c43 -28 69
-96 64 -168 -7 -99 -45 -152 -119 -164 -19 -2 -36 -5 -39 -6 -3 -1 -21 2 -40
6 -74 16 -114 78 -113 178 1 89 30 142 93 168 34 15 123 6 154 -14z m248 -63
l50 -75 50 77 c27 42 53 77 58 77 6 1 17 2 25 2 8 0 19 -1 24 -2 4 0 8 -77 8
-171 0 -159 -1 -170 -20 -176 -34 -11 -41 10 -39 137 l1 121 -50 -71 c-27 -39
-54 -71 -59 -71 -8 0 -58 66 -97 126 -9 15 -11 -5 -10 -101 0 -66 -2 -126 -7
-133 -11 -18 -46 -15 -47 6 -6 79 -4 310 2 323 6 11 17 15 34 11 19 -3 40 -26
77 -80z m491 69 c15 -15 -5 -48 -25 -42 -52 14 -95 12 -118 -7 -21 -17 -23
-23 -13 -44 8 -19 25 -28 69 -38 110 -26 148 -102 85 -172 -29 -32 -32 -33
-110 -33 -88 0 -114 12 -94 43 6 9 17 15 25 13 7 -3 35 -7 61 -9 36 -3 53 0
68 14 38 35 14 73 -56 88 -58 13 -83 28 -101 61 -24 45 -10 91 36 123 30 21
43 23 98 19 35 -3 69 -10 75 -16z"/>
<path d="M1303 3045 c-41 -17 -154 -129 -178 -175 -24 -46 -22 -111 4 -154 34
-54 156 -164 195 -174 70 -20 127 6 217 99 122 126 120 195 -9 325 -93 93
-151 113 -229 79z m147 -165 c36 -35 60 -68 60 -81 0 -31 -110 -139 -142 -139
-36 0 -138 104 -138 140 0 33 107 140 139 140 12 0 46 -26 81 -60z"/>
<path d="M905 2649 c-22 -12 -70 -52 -106 -90 -91 -94 -109 -165 -63 -238 22
-33 283 -294 309 -309 14 -8 26 -7 47 4 15 8 28 18 29 22 0 4 2 15 4 26 2 11
-13 36 -37 62 -22 24 -35 44 -29 44 18 0 139 127 160 169 23 45 21 110 -6 150
-32 50 -128 142 -169 161 -52 26 -89 25 -139 -1z m152 -162 c35 -35 63 -71 63
-79 0 -21 -85 -115 -121 -134 -37 -18 -49 -12 -117 60 -42 45 -52 61 -47 79 9
30 118 137 141 137 9 0 46 -28 81 -63z"/>
<path d="M524 2259 c-32 -9 -159 -125 -186 -170 -25 -39 -32 -93 -18 -134 15
-46 213 -250 252 -260 19 -5 32 -1 47 14 38 38 27 60 -75 161 -52 52 -100 103
-105 112 -13 24 8 62 63 114 73 70 74 70 197 -50 62 -60 117 -106 128 -106 28
0 51 21 59 52 6 25 -4 38 -105 138 -135 135 -172 154 -257 129z"/>
<path d="M1749 2122 c-1 -4 -2 -33 -3 -66 -2 -67 3 -71 68 -62 31 5 47 13 56
30 16 32 4 83 -21 91 -30 10 -99 14 -100 7z"/>
<path d="M2079 2101 c-16 -16 -29 -38 -30 -48 -1 -10 -2 -31 -4 -48 -8 -96 71
-164 146 -125 66 36 66 201 -2 235 -43 23 -77 18 -110 -14z"/>
</g>
</svg>
